<?xml version="1.0" encoding="UTF-8" standalone="no"?>
<svg
   xmlns:dc="http://purl.org/dc/elements/1.1/"
   xmlns:cc="http://creativecommons.org/ns#"
   xmlns:rdf="http://www.w3.org/1999/02/22-rdf-syntax-ns#"
   xmlns:svg="http://www.w3.org/2000/svg"
   xmlns="http://www.w3.org/2000/svg"
   id="svg548"
   height="90"
   width="90"
   y="0.00000000"
   x="0.00000000"
   version="1.0">
  <metadata
     id="metadata7945">
    <rdf:RDF>
      <cc:Work
         rdf:about="">
        <dc:format>image/svg+xml</dc:format>
        <dc:type
           rdf:resource="http://purl.org/dc/dcmitype/StillImage" />
        <dc:title></dc:title>
      </cc:Work>
    </rdf:RDF>
  </metadata>
  <defs
     id="defs550" />
  <g
     transform="rotate(6.4562901,-52.803936,66.14523)"
     id="g2431">
    <path
       id="path582-3"
       style="font-size:12px;fill:#0d3c07;fill-rule:evenodd"
       d="m 43.047418,63.698003 c 1.652516,4.410049 22.289788,14.895363 25.631596,12.491646 6.527521,-3.002142 3.104997,-10.453496 5.538039,-12.167464 2.586485,-1.235596 25.465211,-10.405218 7.720644,-32.746734 -3.208527,-3.993706 -4.67966,-4.500167 -7.124806,-5.420486 -2.348644,-0.785535 -5.542105,0.02172 -7.306386,3.631923 -1.374747,4.146249 0.600324,7.303998 2.496989,9.890603 5.84475,7.696409 -0.45288,9.566626 -3.442201,12.37051 -1.663379,-2.799946 -5.165734,-9.52569 -7.169738,-8.859014 -2.004024,0.666664 -19.37024,11.92352 -16.344137,20.809016 z" />
    <path
       id="path581-5"
       style="font-size:12px;fill:#2aaf18;fill-rule:evenodd"
       d="m 46.034616,63.175076 c 1.073246,3.350069 18.352949,11.489031 21.078474,9.455028 2.725662,-2.034105 -0.02799,-5.904453 0.614643,-8.660655 29.585968,-8.923895 12.543771,-40.006356 3.980142,-33.458822 -4.70795,3.52165 6.693221,9.619218 4.137052,16.622302 -2.128459,6.08141 -11.233842,9.65509 -11.77605,8.45677 C 62.984443,53.19302 60.420129,45.83775 58.823689,46.454703 57.227224,47.071662 44.325991,59.817557 46.034616,63.175076 Z" />
    <path
       id="path588-6"
       style="font-size:12px;fill:#ffffff;fill-rule:evenodd"
       d="m 74.485578,38.015889 c 2.41902,4.427634 4.34088,7.694859 1.761346,11.306975 -3.438655,4.815141 -7.924869,6.005829 -7.973533,6.714886 -0.04864,0.709031 2.227823,-0.477845 6.109531,-3.281096 6.997962,-5.053716 2.809791,-13.010565 0.102656,-14.740765 z" />
    <path
       id="path589-2"
       style="font-size:12px;fill:#ffffff;fill-rule:evenodd"
       d="m 49.891698,58.700821 c 0.669982,-1.345202 5.943174,-8.60402 7.66677,-9.450585 1.723516,-0.846425 1.356305,2.821208 1.356305,2.821208 0,0 -8.589336,5.185547 -9.023075,6.629377 z" />
    <path
       style="font-size:12px;fill:#1f8b10;fill-opacity:1;fill-rule:evenodd"
       d="m 83.438599,39.587776 c 1.463795,11.950035 -8.121206,19.844279 -18.795795,22.436922 0.658121,3.608769 0.64967,5.342006 -0.308063,7.519833 -6.185783,0.169145 -11.199087,-3.163636 -17.282332,-5.214896 1.894791,3.560126 17.016577,10.003306 20.106991,8.416773 2.725663,-2.034101 -0.0341,-5.904388 0.608527,-8.66059 17.534415,-5.521479 18.332792,-17.764784 15.670672,-24.498042 z"
       id="path2187" />
  </g>
</svg>
