<?xml version="1.0" encoding="UTF-8" standalone="no"?>
<svg
   xmlns:dc="http://purl.org/dc/elements/1.1/"
   xmlns:cc="http://creativecommons.org/ns#"
   xmlns:rdf="http://www.w3.org/1999/02/22-rdf-syntax-ns#"
   xmlns:svg="http://www.w3.org/2000/svg"
   xmlns="http://www.w3.org/2000/svg"
   xmlns:xlink="http://www.w3.org/1999/xlink"
   id="svg548"
   height="72.000000pt"
   width="72.000000pt"
   y="0"
   x="0"
   version="1.0">
  <metadata
     id="metadata30">
    <rdf:RDF>
      <cc:Work
         rdf:about="">
        <dc:format>image/svg+xml</dc:format>
        <dc:type
           rdf:resource="http://purl.org/dc/dcmitype/StillImage" />
        <dc:title></dc:title>
      </cc:Work>
    </rdf:RDF>
  </metadata>
  <defs
     id="defs550">
    <linearGradient
       spreadMethod="pad"
       gradientUnits="objectBoundingBox"
       id="linearGradient627"
       y2="0.00000000"
       x2="1.00000000"
       y1="0.00000000"
       x1="0.00000000">
      <stop
         id="stop628"
         offset="0.00000000"
         style="stop-color:#f1e36c;stop-opacity:1;" />
      <stop
         id="stop629"
         offset="1.00000000"
         style="stop-color:#ffc83d;stop-opacity:1;" />
    </linearGradient>
    <linearGradient
       spreadMethod="pad"
       gradientUnits="objectBoundingBox"
       id="linearGradient556"
       y2="0.00000000"
       x2="1.00000000"
       y1="0.00000000"
       x1="0.00000000">
      <stop
         id="stop557"
         offset="0.00000000"
         style="stop-color:#000000;stop-opacity:1;" />
      <stop
         id="stop558"
         offset="1.00000000"
         style="stop-color:#ffffff;stop-opacity:1;" />
    </linearGradient>
    <linearGradient
       gradientUnits="userSpaceOnUse"
       gradientTransform="matrix(1.320176,0.000000,0.000000,1.523452,-1.357529,3.376510)"
       y2="41.664553"
       x2="37.596279"
       y1="22.342376"
       x1="37.596279"
       xlink:href="#linearGradient556"
       id="linearGradient559" />
    <radialGradient
       gradientUnits="userSpaceOnUse"
       spreadMethod="reflect"
       fy="30.751819"
       fx="42.315449"
       r="0.71442052"
       cy="30.905696"
       cx="42.264157"
       xlink:href="#linearGradient627"
       id="radialGradient586" />
    <linearGradient
       gradientUnits="userSpaceOnUse"
       gradientTransform="matrix(1.135532,0.000000,0.000000,1.771166,-1.357529,3.376511)"
       y2="26.163691"
       x2="39.174589"
       y1="26.828369"
       x1="8.1830017"
       id="linearGradient637"
       xlink:href="#linearGradient627" />
    <linearGradient
       gradientUnits="userSpaceOnUse"
       y2="31.002362"
       x2="45.893176"
       y1="28.499883"
       x1="38.770719"
       id="linearGradient600"
       xlink:href="#linearGradient556" />
    <radialGradient
       fy="0.50000000"
       fx="0.50000000"
       r="0.50000000"
       cy="0.50000000"
       cx="0.50000000"
       id="radialGradient598"
       xlink:href="#linearGradient627" />
    <linearGradient
       y2="0.73643392"
       x2="1.22480547"
       y1="0.13953483"
       x1="0.04651213"
       id="linearGradient599"
       xlink:href="#linearGradient627" />
  </defs>
  <path
     id="path602"
     style="font-size:12.000000;fill:#000000;fill-opacity:0.34246597;fill-rule:evenodd;stroke:none;stroke-width:1.7500000;stroke-opacity:1.0000000"
     d="M 25.811795,89.017864 L 77.150432,88.907864 C 81.519928,88.898502 85.706872,83.346572 85.706872,78.977063 L 85.706872,19.502260 C 85.706872,15.135910 81.510038,9.5897934 77.143686,9.5897934 L 25.764586,9.5897934 C 21.395078,9.5897934 17.205179,15.151086 17.208147,19.520593 L 17.248612,79.105396 C 17.251577,83.471745 21.445454,89.027220 25.811795,89.017864 z " />
  <path
     id="path590"
     style="font-size:12.000000;fill:#ffffff;fill-rule:evenodd;stroke-width:1.0000000pt"
     d="M 25.933821,38.642822 C 40.122308,38.980748 52.029570,42.710259 47.939428,62.214233 C 47.899553,62.403498 46.443066,52.123229 40.451831,46.594728 C 34.770561,41.437597 25.753423,38.637636 25.933821,38.642822 z " />
  <path
     id="path606"
     style="font-size:12.000000;fill:#ffffff;fill-rule:evenodd;stroke-width:1.0000000pt"
     d="M 45.722472,71.124435 C 45.722472,71.124435 37.717581,63.195833 35.724030,62.642287 C 33.730612,62.088854 34.849054,65.899481 34.849054,65.899481 C 34.849054,65.899481 44.975941,69.681846 45.722472,71.124435 z " />
  <path
     id="path610"
     style="font-size:12.000000;fill:url(#linearGradient559);fill-opacity:0.75000000;fill-rule:evenodd;stroke:#593a28;stroke-width:2.4818048;stroke-opacity:1.0000000"
     d="M 20.392251,84.807077 L 71.730889,84.697077 C 76.100385,84.687715 80.287329,79.135785 80.287329,74.766276 L 80.287329,15.291474 C 80.287329,10.925124 76.090492,5.3790077 71.724143,5.3790077 L 20.345043,5.3790077 C 15.975535,5.3790077 11.785636,10.940300 11.788603,15.309808 L 11.829068,74.894609 C 11.832033,79.260958 16.025911,84.816433 20.392251,84.807077 z " />
  <path
     id="path599"
     d="M 80.263728,74.222924 L 15.377057,79.777355 L 15.444424,6.7643378 L 72.328570,5.0308527 C 76.224815,4.9121185 80.441717,9.5651400 80.430985,13.463175 L 80.263728,74.222924 z "
     style="fill:#000000;fill-opacity:0.11643798;fill-rule:evenodd;stroke:none;stroke-width:1.0000000pt;stroke-linecap:butt;stroke-linejoin:miter;stroke-opacity:1.0000000" />
  <path
     id="path611"
     style="font-size:12.000000;fill:url(#linearGradient637);fill-opacity:1.0000000;fill-rule:evenodd;stroke:none;stroke-width:2.5000000"
     d="M 16.697299,81.989757 L 60.829428,67.621894 L 61.309026,6.1583525 L 19.881840,7.0187482 C 16.243927,7.5826627 13.255664,11.894448 13.216370,15.575598 L 12.630333,70.478223 C 12.533128,79.584817 14.457566,82.718932 16.697299,81.989757 z " />
  <path
     id="path597"
     d="M 15.663942,82.586038 L 60.057771,67.532892 L 60.959084,5.3409294"
     style="fill:none;fill-opacity:0.75000000;fill-rule:evenodd;stroke:#593a28;stroke-width:1.4181743pt;stroke-linecap:butt;stroke-linejoin:miter;stroke-opacity:1.0000000" />
  <path
     transform="matrix(1.127408,0.000000,0.000000,1.127408,7.657209,4.953295)"
     d="M 44.973166 31.341682 A 2.6833632 2.6833632 0 1 1  39.606439,31.341682 A 2.6833632 2.6833632 0 1 1  44.973166 31.341682 z"
     id="path626"
     style="font-size:12.000000;fill:url(#radialGradient586);fill-opacity:1.0000000;fill-rule:evenodd;stroke:url(#linearGradient600);stroke-width:1.0000000pt;stroke-opacity:1.0000000" />
  <path
     id="path582"
     style="font-size:12.000000;fill:#7e0000;fill-rule:evenodd;stroke-width:1.0000000pt"
     d="M 55.074476,60.353824 C 53.994627,65.311762 34.434135,84.233034 30.499032,82.186949 C 23.074511,79.995572 25.060784,72.714583 22.201374,71.263403 C 19.252348,70.345976 3.4042856,72.915173 1.2948550,69.782468 C -1.7377292,62.981773 -2.3003856,50.262351 4.9336504,46.857056 C 12.380446,44.805122 24.604779,48.714751 25.807718,45.077409 C 27.010655,41.440067 29.719717,39.421165 31.959662,39.822033 C 34.199610,40.222897 57.017182,55.204146 55.074476,60.353824 z " />
  <path
     id="path581"
     style="font-size:12.000000;fill:#ff1500;fill-rule:evenodd;stroke-width:1.0000000pt"
     d="M 48.624237,60.344872 C 47.998075,64.082967 35.151697,77.193357 31.930903,75.446173 C 28.709967,73.698890 29.889450,67.967295 27.504629,67.128686 C 25.119670,66.289980 6.1945336,67.182890 5.9121167,64.280772 C 5.6294619,61.378691 4.4268545,51.514954 7.3288346,51.232435 C 10.231052,50.949882 29.010785,53.546356 29.796353,50.823115 C 30.581923,48.099871 30.103698,45.055318 31.901387,45.466204 C 33.699080,45.877091 49.926726,56.500544 48.624237,60.344872 z " />
  <path
     id="path583"
     style="font-size:12.000000;fill:#cb0000;fill-rule:evenodd;stroke-width:1.0000000pt"
     d="M 5.6995707,62.927638 C 5.6995707,62.927638 5.4479952,65.740316 8.7947686,66.081193 C 12.141305,66.422108 28.074924,66.345847 28.430043,67.503270 C 28.623122,70.939244 31.075323,76.620333 33.247734,76.105905 C 37.111431,75.325695 48.515231,62.961842 48.873082,60.825729 C 49.230696,58.689654 37.329436,70.091754 33.859655,67.863613 C 30.389874,65.635471 31.586227,61.114675 28.773549,60.863097 C 25.961007,60.611620 6.6107422,58.798022 6.1466204,60.257566 C 5.6825980,61.716977 6.3398382,63.693640 5.6995707,62.927638 z " />
  <path
     id="path588"
     style="font-size:12.000000;fill:#ffffff;fill-rule:evenodd;stroke-width:1.0000000pt"
     d="M 7.2078700,54.140221 C 7.2078700,54.140221 28.020104,53.124248 28.909344,54.371220 C 29.798447,55.618096 12.064500,58.576972 7.2078700,54.140221 z " />
  <path
     id="path589"
     style="font-size:12.000000;fill:#ffffff;fill-rule:evenodd;stroke-width:1.0000000pt"
     d="M 45.374277,57.677867 C 45.374277,57.677867 37.369385,49.749268 35.375839,49.195722 C 33.382417,48.642288 34.500859,52.452915 34.500859,52.452915 C 34.500859,52.452915 44.627746,56.235280 45.374277,57.677867 z " />
  <path
     id="path598"
     d="M 18.854972,6.8144901 L 62.074647,17.585052 L 62.207901,6.1624740 L 18.854972,6.8144901 z "
     style="fill:#000000;fill-opacity:0.30136999;fill-rule:evenodd;stroke:none;stroke-width:1.0000000pt;stroke-linecap:butt;stroke-linejoin:miter;stroke-opacity:1.0000000" />
</svg>
