<?xml version="1.0" encoding="UTF-8" standalone="no"?>
<svg
   xmlns:dc="http://purl.org/dc/elements/1.1/"
   xmlns:cc="http://creativecommons.org/ns#"
   xmlns:rdf="http://www.w3.org/1999/02/22-rdf-syntax-ns#"
   xmlns:svg="http://www.w3.org/2000/svg"
   xmlns="http://www.w3.org/2000/svg"
   xmlns:xlink="http://www.w3.org/1999/xlink"
   xmlns:sodipodi="http://sodipodi.sourceforge.net/DTD/sodipodi-0.dtd"
   xmlns:inkscape="http://www.inkscape.org/namespaces/inkscape"
   version="1.1"
   height="90"
   width="90"
   id="svg704"
   sodipodi:docname="system-reboot.svg"
   inkscape:version="0.92.3 (2405546, 2018-03-11)">
  <sodipodi:namedview
     pagecolor="#ffffff"
     bordercolor="#666666"
     borderopacity="1"
     objecttolerance="10"
     gridtolerance="10"
     guidetolerance="10"
     inkscape:pageopacity="0"
     inkscape:pageshadow="2"
     inkscape:window-width="1366"
     inkscape:window-height="717"
     id="namedview53"
     showgrid="false"
     units="px"
     inkscape:zoom="2.4583333"
     inkscape:cx="-19.118645"
     inkscape:cy="46.372881"
     inkscape:window-x="0"
     inkscape:window-y="0"
     inkscape:window-maximized="1"
     inkscape:current-layer="svg704" />
  <metadata
     id="metadata45">
    <rdf:RDF>
      <cc:Work
         rdf:about="">
        <dc:format>image/svg+xml</dc:format>
        <dc:type
           rdf:resource="http://purl.org/dc/dcmitype/StillImage" />
        <dc:title />
      </cc:Work>
    </rdf:RDF>
  </metadata>
  <defs
     id="defs706">
    <linearGradient
       id="linearGradient734">
      <stop
         id="stop735"
         offset="0.000000"
         style="stop-color:#2a2535;stop-opacity:1;" />
      <stop
         id="stop736"
         offset="1.000000"
         style="stop-color:#e3e1cf;stop-opacity:1;" />
    </linearGradient>
    <linearGradient
       id="linearGradient724">
      <stop
         id="stop725"
         offset="0.000000"
         style="stop-color:#ffffff;stop-opacity:0.490196;" />
      <stop
         id="stop726"
         offset="1.000000"
         style="stop-color:#ffffff;stop-opacity:0.176471;" />
    </linearGradient>
    <linearGradient
       id="linearGradient718">
      <stop
         id="stop719"
         offset="0.000000"
         style="stop-color:#e3e1cf;stop-opacity:1;" />
      <stop
         id="stop720"
         offset="1.000000"
         style="stop-color:#ffffff;stop-opacity:1;" />
    </linearGradient>
    <linearGradient
       gradientTransform="matrix(0.96816,0,0,0.905538,-1.667112,-6.874758)"
       spreadMethod="pad"
       gradientUnits="userSpaceOnUse"
       y2="27.204851"
       x2="24.03751"
       y1="41.926235"
       x1="45.433064"
       id="linearGradient721"
       xlink:href="#linearGradient718" />
    <linearGradient
       gradientTransform="matrix(1.109983,0,0,0.789844,-1.667112,-6.874758)"
       spreadMethod="pad"
       gradientUnits="userSpaceOnUse"
       y2="68.666504"
       x2="37.319721"
       y1="39.844505"
       x1="40.260796"
       id="linearGradient723"
       xlink:href="#linearGradient724" />
    <linearGradient
       id="linearGradient732"
       xlink:href="#linearGradient724" />
    <radialGradient
       gradientTransform="matrix(1.5216059,0.18462102,-0.06967546,0.68202031,3.034778,-22.6492)"
       spreadMethod="pad"
       gradientUnits="userSpaceOnUse"
       r="14.89454"
       fy="118.19096"
       fx="33.213421"
       cy="118.19096"
       cx="33.213421"
       id="radialGradient733"
       xlink:href="#linearGradient734" />
    <radialGradient
       id="radialGradient738"
       xlink:href="#linearGradient734" />
  </defs>
  <g
     id="g879"
     transform="translate(2.6940502,5.8342629)">
    <path
       inkscape:connector-curvature="0"
       style="font-size:12px;fill:#000000;fill-opacity:0.3;fill-rule:evenodd;stroke-width:1.00000003pt"
       d="M 68.041501,73.604669 C 67.417169,80.219068 55.844793,84.134087 42.210307,82.343619 28.575812,80.553153 18.016842,73.731871 18.641176,67.117469 19.265511,60.50307 30.837883,56.588051 44.472375,58.37852 c 13.634489,1.790465 24.19346,8.611744 23.569126,15.226149 z"
       id="path744" />
    <path
       inkscape:connector-curvature="0"
       style="fill:#000000;fill-opacity:0.3;fill-rule:evenodd;stroke:none;stroke-width:1.00000003pt;stroke-linecap:butt;stroke-linejoin:miter;stroke-opacity:1"
       d="M 13.031518,51.50196 C 11.235217,48.937609 2.5222183,27.8741 9.9917851,-2.6622249 40.711018,-8.9653853 67.333866,2.783397 81.155282,11.61845 83.975709,17.470534 79.15987,61.434077 68.845611,65.741894 61.928787,67.997429 25.735276,67.375661 13.031518,51.50196 Z"
       id="path743" />
    <path
       inkscape:connector-curvature="0"
       style="font-size:12px;fill:#211301;fill-rule:evenodd;stroke-width:1.00000003pt"
       d="m 64.344751,71.95826 c -0.57764,5.918989 -11.284495,9.422388 -23.899236,7.820165 -12.61474,-1.602232 -22.383984,-7.706344 -21.806346,-13.62533 0.577643,-5.918986 11.284497,-9.422388 23.899238,-7.820159 12.614744,1.602222 22.383984,7.706341 21.806344,13.625324 z"
       id="path739" />
    <path
       inkscape:connector-curvature="0"
       style="fill:url(#radialGradient733);fill-opacity:1;fill-rule:evenodd;stroke:none;stroke-width:1.02500251pt;stroke-linecap:butt;stroke-linejoin:miter;stroke-opacity:1"
       id="path731"
       d="m 60.398561,70.106237 a 19.046322,8.5166901 7.1892604 1 1 -37.813613,-4.58804 19.046322,8.5166901 7.1892604 1 1 37.813613,4.58804 z" />
    <path
       inkscape:connector-curvature="0"
       style="font-size:12px;fill:#211301;fill-opacity:1;fill-rule:evenodd;stroke-width:1.00000003pt"
       d="m 56.342956,65.79598 c -0.420764,3.190953 -6.792896,5.24199 -14.22359,4.5782 -7.430585,-0.663781 -13.119732,-3.792264 -12.698971,-6.983217 0.420761,-3.190956 6.792898,-5.241993 14.22348,-4.578212 7.430691,0.66379 13.119848,3.792273 12.699081,6.983229 z"
       id="path730" />
    <path
       inkscape:connector-curvature="0"
       style="font-size:12px;fill:#bebdae;fill-opacity:1;fill-rule:evenodd;stroke-width:1.00000003pt"
       d="m 54.590191,64.819903 c -0.365981,2.542004 -5.908412,4.175918 -12.371581,3.647118 -6.463066,-0.528786 -11.411453,-3.021023 -11.045472,-5.563025 0.365978,-2.542005 5.908415,-4.175912 12.371484,-3.647125 6.463166,0.528793 11.411544,3.021033 11.045569,5.563032 z"
       id="path728" />
    <path
       inkscape:connector-curvature="0"
       style="fill:#211301;fill-opacity:1;fill-rule:evenodd;stroke:none;stroke-width:1.00000003pt;stroke-linecap:butt;stroke-linejoin:miter;stroke-opacity:1"
       d="M 8.6801348,51.719533 C 6.8838333,49.155185 -1.8291659,28.091679 5.6404015,-2.4446503 36.359633,-8.7478104 62.982481,3.0009717 76.8039,11.836025 79.624324,17.688109 74.808489,61.65165 64.494223,65.95947 57.577405,68.215002 21.383891,67.593237 8.6801348,51.719533 Z"
       id="path715" />
    <path
       inkscape:connector-curvature="0"
       style="fill:url(#linearGradient721);fill-opacity:1;fill-rule:evenodd;stroke:none;stroke-width:1.00000003pt;stroke-linecap:butt;stroke-linejoin:miter;stroke-opacity:1"
       d="M 12.816766,50.036436 C 11.353658,47.256756 3.1608282,31.602463 8.7203276,1.4644124 40.175073,-4.24134 61.096122,7.901643 74.116987,15.216713 75.580003,20.483655 70.75201,59.984926 62.851736,62.325753 56.121874,64.52032 22.472561,63.20356 12.816766,50.036436 Z"
       id="path713" />
    <path
       inkscape:connector-curvature="0"
       style="fill:#b5a794;fill-opacity:1;fill-rule:evenodd;stroke:none;stroke-width:1.00000003pt;stroke-linecap:butt;stroke-linejoin:miter;stroke-opacity:1"
       d="m 16.18165,10.974018 -2.340824,0.731459 c -0.292601,2.194567 -3.9500905,20.043335 -0.438858,27.943609 4.096438,6.876115 5.998309,8.192879 5.559451,7.461324 C 13.987083,38.771276 12.377813,26.043012 16.18165,10.974018 Z"
       id="path717" />
    <path
       inkscape:connector-curvature="0"
       style="fill:#000000;fill-opacity:1;fill-rule:evenodd;stroke:none;stroke-width:1.00000003pt;stroke-linecap:butt;stroke-linejoin:miter;stroke-opacity:1"
       d="m 15.967044,10.621007 c 0,0 -5.915756,21.539691 1.668607,34.584705 5.76412,8.039478 24.421609,14.410343 39.742078,9.859724 2.88211,-3.640496 9.404513,-23.359847 3.337118,-34.281331 C 58.43949,16.991872 30.984136,5.312001 15.967044,10.621007 Z"
       id="path711" />
    <path
       inkscape:connector-curvature="0"
       style="fill:#437caf;fill-opacity:1;fill-rule:evenodd;stroke:none;stroke-width:1.00000003pt;stroke-linecap:butt;stroke-linejoin:miter;stroke-opacity:1"
       d="m 16.766852,11.412876 c 0,0 -5.705705,20.774886 1.609365,33.356711 5.559452,7.754018 23.55447,13.898675 38.330956,9.509636 2.779773,-3.511235 9.070589,-22.530411 3.218634,-33.064108 C 57.731239,17.557534 31.250733,6.292373 16.766852,11.412876 Z"
       id="path710" />
    <path
       inkscape:connector-curvature="0"
       style="fill:url(#linearGradient723);fill-opacity:1;fill-rule:evenodd;stroke:none;stroke-width:1.00000003pt;stroke-linecap:butt;stroke-linejoin:miter;stroke-opacity:1"
       d="m 14.864981,32.334015 c 0,0 12.142968,-16.5321 23.70073,-5.998398 4.681737,15.654193 21.798949,19.31178 21.798949,19.31178 l -3.364883,8.339218 C 44.271508,58.52201 19.83923,49.158629 18.668818,45.647397 17.498406,42.136159 18.376217,47.549357 14.864981,32.334015 Z"
       id="path722" />
    <path
       inkscape:connector-curvature="0"
       style="fill:#000000;fill-opacity:1;fill-rule:evenodd;stroke:none;stroke-width:1.00000003pt;stroke-linecap:butt;stroke-linejoin:miter;stroke-opacity:1"
       d="m 20.863338,39.77681 -0.136853,7.517989 C 26.517231,54.723085 44.29045,58.187144 49.684694,55.733177 49.528999,54.487155 49.373212,51.702771 49.08057,50.532403 45.276725,49.654577 27.522339,47.058875 20.863338,39.77681 Z"
       id="path709" />
    <path
       inkscape:connector-curvature="0"
       style="fill:#b5a794;fill-opacity:1;fill-rule:evenodd;stroke:none;stroke-width:1.00000003pt;stroke-linecap:butt;stroke-linejoin:miter;stroke-opacity:1"
       d="m 74.409594,15.509314 c 0,0 -4.827899,0.146349 -4.974154,0.146349 -0.146446,0 0.731455,12.435568 0.146255,16.970959 -0.585209,4.535292 -2.048219,15.215343 -2.926029,17.995017 -0.87781,2.779777 -5.998404,11.704114 -6.437258,12.289313 -0.43895,0.585209 1.170408,-0.146349 3.657481,-0.877807 6.729866,-7.754019 10.094845,-26.334148 10.533705,-46.523831 z"
       id="path716" />
    <path
       inkscape:connector-curvature="0"
       style="fill:#c7bda8;fill-opacity:1;fill-rule:evenodd;stroke:none;stroke-width:1.00000003pt;stroke-linecap:butt;stroke-linejoin:miter;stroke-opacity:1"
       d="m 21.448496,41.258405 0.146349,5.413102 c 5.852058,6.290909 22.823012,10.094745 27.065708,8.339224 -0.146259,-1.170505 -0.292605,-3.511232 -0.292605,-3.511232 0,0 -21.213743,-3.950185 -26.919452,-10.241094 z"
       id="path708" />
    <path
       inkscape:connector-curvature="0"
       style="fill:#211301;fill-opacity:1;fill-rule:evenodd;stroke:none;stroke-width:1.00000003pt;stroke-linecap:butt;stroke-linejoin:miter;stroke-opacity:1"
       d="m 59.925807,62.618351 c 0,0 11.411502,-8.924334 8.485476,-46.377482 -2.487175,-2.487173 -6.291005,-5.266851 -6.291005,-5.266851 0,0 7.315068,3.511232 7.754018,4.681645 0.731459,1.609266 1.170319,40.379171 -9.948489,46.962688 z"
       id="path712" />
    <path
       inkscape:connector-curvature="0"
       style="fill:#fbfbfb;fill-opacity:1;fill-rule:evenodd;stroke:none;stroke-width:1.00000003pt;stroke-linecap:butt;stroke-linejoin:miter;stroke-opacity:1"
       d="m 23.204115,66.714792 1.316756,-1.024066 c 4.681643,8.192878 23.847077,9.070682 25.310091,8.778081 1.463013,-0.292598 -16.239499,5.266853 -26.626847,-7.754015 z"
       id="path740" />
    <path
       inkscape:connector-curvature="0"
       style="fill:none;fill-opacity:1;fill-rule:evenodd;stroke:#000000;stroke-width:0.81928766;stroke-linecap:round;stroke-linejoin:round;stroke-opacity:1"
       d="m 24.081922,44.184378 c 0,-1.46301 0,4.389135 0,4.389135"
       id="path741" />
    <path
       inkscape:connector-curvature="0"
       style="fill:none;fill-opacity:1;fill-rule:evenodd;stroke:#000000;stroke-width:0.81928766;stroke-linecap:round;stroke-linejoin:round;stroke-opacity:1"
       d="m 42.80851,50.767944 c 0,-1.46301 0,4.389136 0,4.389136"
       id="path742" />
  </g>
  <g
     transform="matrix(0.75,0,0,0.75,24.9272,24.32161)"
     id="g4589">
    <g
       id="g2326"
       transform="matrix(0.7725562,-0.03796542,0.03265681,0.6645316,-6.825819,27.189275)">
      <path
         d="m 33.001362,59.685288 c 0.259443,8.193904 28.421068,37.014223 35.273759,34.91931 12.43904,-1.300913 10.961446,-15.497913 15.930457,-16.963645 4.954603,-0.59134 47.796902,-2.920827 31.030732,-49.670173 -3.05734,-8.377214 -5.19953,-10.034392 -8.71616,-12.918237 -3.43286,-2.607708 -9.148695,-3.061773 -14.075051,1.903828 -4.583773,6.067023 -3.092644,12.376702 -1.41155,17.700986 5.33384,15.954816 -6.093552,15.518154 -12.588802,18.46978 -1.177265,-5.545604 -3.192021,-18.591006 -6.868383,-18.612013 -3.676389,-0.02104 -38.597502,8.830439 -38.575002,25.170164 z"
         style="font-size:12px;fill:#0d3c07;fill-rule:evenodd"
         id="path2317"
         inkscape:connector-curvature="0" />
      <path
         d="m 38.218249,60.4928 c -0.103087,6.122687 23.834757,29.198267 29.464821,27.36841 5.630347,-1.829953 3.25396,-9.749563 5.853868,-13.934186 53.762332,1.824402 43.039532,-58.942461 25.262242,-52.93473 -9.729703,3.174344 5.65792,19.598933 -2.470249,29.715339 C 89.421012,59.543648 72.412738,60.34597 72.18863,58.067403 71.740405,53.510195 71.62393,39.951262 68.647257,40.076075 65.67054,40.200886 37.278028,54.002708 38.218249,60.4928 Z"
         style="font-size:12px;fill:#2aaf18;fill-rule:evenodd"
         id="path2319"
         inkscape:connector-curvature="0" />
      <path
         d="m 99.183613,34.917769 c 1.513247,8.651306 2.855467,15.111723 -3.41595,19.624814 -8.360135,6.016189 -16.421481,5.471705 -16.89801,6.613437 -0.476468,1.141706 3.939804,0.457405 11.905864,-1.994407 14.361253,-4.42014 11.903963,-19.878422 8.408096,-24.243844 z"
         style="font-size:12px;fill:#ffffff;fill-rule:evenodd"
         id="path2321"
         inkscape:connector-curvature="0" />
      <path
         d="m 47.077663,55.272454 c 1.856369,-1.843201 14.606684,-10.862615 17.921315,-11.294893 3.314423,-0.43209 0.659148,5.409028 0.659148,5.409028 0,0 -17.058432,3.748029 -18.580463,5.885865 z"
         style="font-size:12px;fill:#ffffff;fill-rule:evenodd"
         id="path2323"
         inkscape:connector-curvature="0" />
      <path
         id="path2187"
         d="m 113.06476,42.513129 c -4.26589,20.518642 -24.479692,28.17566 -43.526599,26.483615 -0.93204,6.317152 -1.914706,9.169795 -4.710823,12.224809 -10.292251,-3.178489 -16.6943,-11.47484 -25.576486,-18.256517 1.133887,6.928156 22.462047,26.002021 28.443559,25.113796 5.630347,-1.829949 3.243842,-9.752877 5.84375,-13.9375 31.992809,0.697718 40.151969,-19.040034 39.526599,-31.628203 z"
         style="font-size:12px;fill:#1f8b10;fill-opacity:1;fill-rule:evenodd"
         inkscape:connector-curvature="0" />
    </g>
    <g
       id="g622"
       transform="matrix(1.151622,0,0,0.979293,0.112926,0.80396)">
      <defs
         id="defs624" />
      <path
         d="M 60.01725,23.99648 C 59.53549,18.42523 39.28151,-0.155997 34.6921,1.525979 26.26824,2.875133 27.80318,12.48977 24.47333,13.67308 21.12074,14.2603 -7.972638,17.44191 5.187324,48.65893 c 2.394247,5.59194 3.915003,6.6409 6.417556,8.47418 2.43522,1.64832 6.34521,1.74479 9.51571,-1.82071 2.89616,-4.30293 1.64564,-8.54497 0.30242,-12.10878 -4.22689,-10.66833 3.57262,-10.79635 7.88668,-13.04853 1.0083,3.73331 2.86623,12.54359 5.371,12.42103 2.50479,-0.12254 25.9602,-7.45141 25.33656,-18.57964 z"
         style="font-size:12px;fill:#0d3c07;fill-rule:evenodd"
         id="path582"
         inkscape:connector-curvature="0" />
      <path
         d="M 56.43394,23.6407 C 56.27621,19.46667 39.11294,4.640965 35.3464,6.096892 31.57967,7.552896 33.49308,12.85851 31.87806,15.80547 -4.80765,16.56439 4.758002,57.5538 16.64254,52.80007 c 6.50877,-2.52429 -4.58329,-13.13829 0.57622,-20.33123 4.37606,-6.27543 15.93061,-7.4551 16.16808,-5.9115 0.47495,3.08725 1.05907,12.31797 3.08185,12.12214 C 38.4915,38.48365 57.31595,28.02613 56.43394,23.6407 Z"
         style="font-size:12px;fill:#2aaf18;fill-rule:evenodd"
         id="path581"
         inkscape:connector-curvature="0" />
      <path
         d="m 6.835245,41.70574 c 1.43622,-9.17212 3.550395,-14.55 8.547695,-18.3307 5.49882,-4.37309 14.83349,-5.04396 15.11555,-5.83934 0.28202,-0.79536 -6.76993,1.32076 -12.21688,2.94993 C 8.069523,23.49743 5.940525,35.37665 6.835245,41.70574 Z"
         style="font-size:12px;fill:#ffffff;fill-rule:evenodd"
         id="path588"
         inkscape:connector-curvature="0" />
      <path
         d="m 48.10932,19.7236 c -1.1613,-1.35484 -9.33685,-8.18522 -11.56688,-8.66056 -2.2299,-0.4752 -0.74423,3.64164 -0.74423,3.64164 0,0 11.39326,3.48205 12.31111,5.01892 z"
         style="font-size:12px;fill:#ffffff;fill-rule:evenodd"
         id="path589"
         inkscape:connector-curvature="0" />
      <path
         style="font-size:12px;fill:none;fill-rule:evenodd;stroke-width:1.00000003pt"
         d="m 48.89974,35.68601 c 0,0 9.15578,-3.82242 9.14031,-3.70239 -0.01547,0.12001 -1.70374,-1.92783 -1.70374,-1.92783 l -2.37323,0.42618 -5.26121,2.00615 z"
         id="path576"
         inkscape:connector-curvature="0" />
      <path
         style="fill:#1f8b10;fill-opacity:0.9899;fill-rule:evenodd;stroke:none;stroke-width:1.00000003pt;stroke-linecap:butt;stroke-linejoin:miter;stroke-opacity:1"
         d="m 56.32258,23.6129 c 0.96775,5.80645 -20.12903,15.48387 -20.12903,15.48387 -1.93549,-1.54838 -3.09678,-11.99999 -5.03226,-13.35484 -3.48387,1.54839 -14.32258,4.64516 -14.90322,8.70968 -0.58066,4.06452 2.32258,12.19355 2.70968,14.12903 0.77419,2.90324 -1.74194,5.61291 -4.25807,4.45162 -2.51613,-1.16129 -2.90323,-3.48388 -2.90323,-3.48388 0,0 2.70968,10e-6 3.09678,-2.12903 0.38709,-2.12903 -5.22581,-12.58064 -2.32258,-16.64516 2.90322,-4.06451 14.51612,-9.67741 21.67741,-9.09677 l 2.90323,11.99999 c 0,0 2.90322,-0.19353 19.16129,-10.06451 z"
         id="path615"
         inkscape:connector-curvature="0" />
    </g>
  </g>
</svg>
