<?xml version="1.0" encoding="UTF-8" standalone="no"?>
<svg
   xmlns:dc="http://purl.org/dc/elements/1.1/"
   xmlns:cc="http://creativecommons.org/ns#"
   xmlns:rdf="http://www.w3.org/1999/02/22-rdf-syntax-ns#"
   xmlns:svg="http://www.w3.org/2000/svg"
   xmlns="http://www.w3.org/2000/svg"
   xmlns:xlink="http://www.w3.org/1999/xlink"
   xmlns:sodipodi="http://sodipodi.sourceforge.net/DTD/sodipodi-0.dtd"
   xmlns:inkscape="http://www.inkscape.org/namespaces/inkscape"
   version="1.1"
   height="90"
   width="90"
   id="svg704"
   sodipodi:docname="system-lock-screen.svg"
   inkscape:version="0.92.3 (2405546, 2018-03-11)">
  <sodipodi:namedview
     pagecolor="#ffffff"
     bordercolor="#666666"
     borderopacity="1"
     objecttolerance="10"
     gridtolerance="10"
     guidetolerance="10"
     inkscape:pageopacity="0"
     inkscape:pageshadow="2"
     inkscape:window-width="1366"
     inkscape:window-height="717"
     id="namedview47"
     showgrid="false"
     inkscape:zoom="5.2444444"
     inkscape:cx="103.52136"
     inkscape:cy="34.110266"
     inkscape:window-x="0"
     inkscape:window-y="0"
     inkscape:window-maximized="1"
     inkscape:current-layer="svg704" />
  <metadata
     id="metadata45">
    <rdf:RDF>
      <cc:Work
         rdf:about="">
        <dc:format>image/svg+xml</dc:format>
        <dc:type
           rdf:resource="http://purl.org/dc/dcmitype/StillImage" />
        <dc:title />
      </cc:Work>
    </rdf:RDF>
  </metadata>
  <defs
     id="defs706">
    <linearGradient
       id="linearGradient734">
      <stop
         id="stop735"
         offset="0.000000"
         style="stop-color:#2a2535;stop-opacity:1;" />
      <stop
         id="stop736"
         offset="1.000000"
         style="stop-color:#e3e1cf;stop-opacity:1;" />
    </linearGradient>
    <linearGradient
       id="linearGradient724">
      <stop
         id="stop725"
         offset="0.000000"
         style="stop-color:#ffffff;stop-opacity:0.490196;" />
      <stop
         id="stop726"
         offset="1.000000"
         style="stop-color:#ffffff;stop-opacity:0.176471;" />
    </linearGradient>
    <linearGradient
       id="linearGradient718">
      <stop
         id="stop719"
         offset="0.000000"
         style="stop-color:#e3e1cf;stop-opacity:1;" />
      <stop
         id="stop720"
         offset="1.000000"
         style="stop-color:#ffffff;stop-opacity:1;" />
    </linearGradient>
    <linearGradient
       gradientTransform="matrix(0.96816,0,0,0.905538,-4.3284286,-2.4288074)"
       spreadMethod="pad"
       gradientUnits="userSpaceOnUse"
       y2="27.204851"
       x2="24.03751"
       y1="41.926235"
       x1="45.433064"
       id="linearGradient721"
       xlink:href="#linearGradient718" />
    <linearGradient
       gradientTransform="matrix(1.109983,0,0,0.789844,-4.3284286,-2.4288074)"
       spreadMethod="pad"
       gradientUnits="userSpaceOnUse"
       y2="68.666504"
       x2="37.319721"
       y1="39.844505"
       x1="40.260796"
       id="linearGradient723"
       xlink:href="#linearGradient724" />
    <linearGradient
       id="linearGradient732"
       xlink:href="#linearGradient724" />
    <radialGradient
       gradientTransform="matrix(1.5327652,0,0,0.68557011,-1.4787594,-18.118951)"
       spreadMethod="pad"
       gradientUnits="userSpaceOnUse"
       r="14.89454"
       fy="118.19096"
       fx="33.213421"
       cy="118.19096"
       cx="33.213421"
       id="radialGradient733"
       xlink:href="#linearGradient734" />
    <radialGradient
       id="radialGradient738"
       xlink:href="#linearGradient734" />
    <linearGradient
       inkscape:collect="always"
       xlink:href="#linearGradient724"
       id="linearGradient939"
       gradientUnits="userSpaceOnUse"
       gradientTransform="matrix(1.109983,0,0,0.789844,105.67157,-2.4288074)"
       x1="40.260796"
       y1="39.844505"
       x2="37.319721"
       y2="68.666504"
       spreadMethod="pad" />
  </defs>
  <g
     id="g960"
     transform="translate(5.355367,1.3883121)">
    <path
       style="font-size:12px;fill:#000000;fill-opacity:0.3;fill-rule:evenodd;stroke-width:1.00000003pt"
       d="M 65.380184,78.05062 C 64.755852,84.665019 53.183476,88.580038 39.54899,86.78957 25.914495,84.999104 15.355525,78.177822 15.979859,71.56342 c 0.624335,-6.614399 12.196707,-10.529418 25.831199,-8.738949 13.634489,1.790465 24.19346,8.611744 23.569126,15.226149 z"
       id="path744"
       inkscape:connector-curvature="0" />
    <path
       style="fill:#000000;fill-opacity:0.3;fill-rule:evenodd;stroke:none;stroke-width:1.00000003pt;stroke-linecap:butt;stroke-linejoin:miter;stroke-opacity:1"
       d="M 10.370201,55.947911 C 8.5739004,53.38356 -0.1390983,32.320051 7.3304685,1.7837257 38.049701,-4.5194347 64.672549,7.2293476 78.493965,16.064401 81.314392,21.916485 76.498553,65.880028 66.184294,70.187845 59.26747,72.44338 23.073959,71.821612 10.370201,55.947911 Z"
       id="path743"
       inkscape:connector-curvature="0" />
    <path
       style="font-size:12px;fill:#211301;fill-rule:evenodd;stroke-width:1.00000003pt"
       d="M 61.683434,76.404211 C 61.105794,82.3232 50.398939,85.826599 37.784198,84.224376 25.169458,82.622144 15.400214,76.518032 15.977852,70.599046 16.555495,64.68006 27.262349,61.176658 39.87709,62.778887 c 12.614744,1.602222 22.383984,7.706341 21.806344,13.625324 z"
       id="path739"
       inkscape:connector-curvature="0" />
    <ellipse
       ry="8.5185995"
       rx="19.045469"
       cy="67.067001"
       cx="45.981323"
       style="fill:url(#radialGradient733);fill-opacity:1;fill-rule:evenodd;stroke:none;stroke-width:1.02509424pt;stroke-linecap:butt;stroke-linejoin:miter;stroke-opacity:1"
       id="path731"
       transform="matrix(0.99271944,0.12044964,-0.10163142,0.99482212,0,0)" />
    <path
       style="font-size:12px;fill:#211301;fill-opacity:1;fill-rule:evenodd;stroke-width:1.00000003pt"
       d="m 53.681639,70.241931 c -0.420764,3.190953 -6.792896,5.24199 -14.22359,4.5782 -7.430585,-0.663781 -13.119732,-3.792264 -12.698971,-6.983217 0.420761,-3.190956 6.792898,-5.241993 14.22348,-4.578212 7.430691,0.66379 13.119848,3.792273 12.699081,6.983229 z"
       id="path730"
       inkscape:connector-curvature="0" />
    <path
       style="font-size:12px;fill:#bebdae;fill-opacity:1;fill-rule:evenodd;stroke-width:1.00000003pt"
       d="m 51.928874,69.265854 c -0.365981,2.542004 -5.908412,4.175918 -12.371581,3.647118 -6.463066,-0.528786 -11.411453,-3.021023 -11.045472,-5.563025 0.365978,-2.542005 5.908415,-4.175912 12.371484,-3.647125 6.463166,0.528793 11.411544,3.021033 11.045569,5.563032 z"
       id="path728"
       inkscape:connector-curvature="0" />
    <path
       style="fill:#211301;fill-opacity:1;fill-rule:evenodd;stroke:none;stroke-width:1.00000003pt;stroke-linecap:butt;stroke-linejoin:miter;stroke-opacity:1"
       d="M 6.0188182,56.165484 C 4.2225167,53.601136 -4.4904825,32.53763 2.9790849,2.0013003 33.698316,-4.3018598 60.321164,7.4469223 74.142583,16.281976 76.963007,22.13406 72.147172,66.097601 61.832906,70.405421 54.916088,72.660953 18.722574,72.039188 6.0188182,56.165484 Z"
       id="path715"
       inkscape:connector-curvature="0" />
    <path
       style="fill:url(#linearGradient721);fill-opacity:1;fill-rule:evenodd;stroke:none;stroke-width:1.00000003pt;stroke-linecap:butt;stroke-linejoin:miter;stroke-opacity:1"
       d="M 10.155449,54.482387 C 8.6923414,51.702707 0.4995116,36.048414 6.059011,5.910363 37.513756,0.2046106 58.434805,12.347594 71.45567,19.662664 c 1.463016,5.266942 -3.364977,44.768213 -11.265251,47.10904 -6.729862,2.194567 -40.379175,0.877807 -50.03497,-12.289317 z"
       id="path713"
       inkscape:connector-curvature="0" />
    <path
       style="fill:#b5a794;fill-opacity:1;fill-rule:evenodd;stroke:none;stroke-width:1.00000003pt;stroke-linecap:butt;stroke-linejoin:miter;stroke-opacity:1"
       d="m 13.520333,15.419969 -2.340824,0.731459 c -0.292601,2.194567 -3.9500901,20.043335 -0.438858,27.943609 4.096438,6.876115 5.998309,8.192879 5.559451,7.461324 C 11.325766,43.217227 9.7164964,30.488963 13.520333,15.419969 Z"
       id="path717"
       inkscape:connector-curvature="0" />
    <path
       style="fill:#000000;fill-opacity:1;fill-rule:evenodd;stroke:none;stroke-width:1.00000003pt;stroke-linecap:butt;stroke-linejoin:miter;stroke-opacity:1"
       d="m 13.305727,15.066958 c 0,0 -5.9157556,21.539691 1.668607,34.584705 5.76412,8.039478 24.421609,14.410343 39.742078,9.859724 C 57.598522,55.870891 64.120925,36.15154 58.05353,25.230056 55.778173,21.437823 28.322819,9.7579516 13.305727,15.066958 Z"
       id="path711"
       inkscape:connector-curvature="0" />
    <path
       style="fill:#437caf;fill-opacity:1;fill-rule:evenodd;stroke:none;stroke-width:1.00000003pt;stroke-linecap:butt;stroke-linejoin:miter;stroke-opacity:1"
       d="m 14.105535,15.858827 c 0,0 -5.7057046,20.774886 1.609365,33.356711 5.559452,7.754018 23.55447,13.898675 38.330956,9.509636 C 56.825629,55.213939 63.116445,36.194763 57.26449,25.661066 55.069922,22.003485 28.589416,10.738324 14.105535,15.858827 Z"
       id="path710"
       inkscape:connector-curvature="0" />
    <path
       style="fill:url(#linearGradient723);fill-opacity:1;fill-rule:evenodd;stroke:none;stroke-width:1.00000003pt;stroke-linecap:butt;stroke-linejoin:miter;stroke-opacity:1"
       d="m 12.203664,36.779966 c 0,0 12.142968,-16.5321 23.70073,-5.998398 4.681737,15.654193 21.798949,19.31178 21.798949,19.31178 L 54.33846,58.432566 C 41.610191,62.967961 17.177913,53.60458 16.007501,50.093348 14.837089,46.58211 15.7149,51.995308 12.203664,36.779966 Z"
       id="path722"
       inkscape:connector-curvature="0" />
    <path
       style="fill:#000000;fill-opacity:1;fill-rule:evenodd;stroke:none;stroke-width:1.00000003pt;stroke-linecap:butt;stroke-linejoin:miter;stroke-opacity:1"
       d="m 18.202021,44.222761 -0.136853,7.517989 c 5.790746,7.428286 23.563965,10.892345 28.958209,8.438378 C 46.867682,58.933106 46.711895,56.148722 46.419253,54.978354 42.615408,54.100528 24.861022,51.504826 18.202021,44.222761 Z"
       id="path709"
       inkscape:connector-curvature="0" />
    <path
       style="fill:#b5a794;fill-opacity:1;fill-rule:evenodd;stroke:none;stroke-width:1.00000003pt;stroke-linecap:butt;stroke-linejoin:miter;stroke-opacity:1"
       d="m 71.748277,19.955265 c 0,0 -4.827899,0.146349 -4.974154,0.146349 -0.146446,0 0.731455,12.435568 0.146255,16.970959 -0.585209,4.535292 -2.048219,15.215343 -2.926029,17.995017 -0.87781,2.779777 -5.998404,11.704114 -6.437258,12.289313 -0.43895,0.585209 1.170408,-0.146349 3.657481,-0.877807 6.729866,-7.754019 10.094845,-26.334148 10.533705,-46.523831 z"
       id="path716"
       inkscape:connector-curvature="0" />
    <path
       style="fill:#c7bda8;fill-opacity:1;fill-rule:evenodd;stroke:none;stroke-width:1.00000003pt;stroke-linecap:butt;stroke-linejoin:miter;stroke-opacity:1"
       d="m 18.787179,45.704356 0.146349,5.413102 c 5.852058,6.290909 22.823012,10.094745 27.065708,8.339224 -0.146259,-1.170505 -0.292605,-3.511232 -0.292605,-3.511232 0,0 -21.213743,-3.950185 -26.919452,-10.241094 z"
       id="path708"
       inkscape:connector-curvature="0" />
    <path
       style="fill:#211301;fill-opacity:1;fill-rule:evenodd;stroke:none;stroke-width:1.00000003pt;stroke-linecap:butt;stroke-linejoin:miter;stroke-opacity:1"
       d="m 57.26449,67.064302 c 0,0 11.411502,-8.924334 8.485476,-46.377482 -2.487175,-2.487173 -6.291005,-5.266851 -6.291005,-5.266851 0,0 7.315068,3.511232 7.754018,4.681645 0.731459,1.609266 1.170319,40.379171 -9.948489,46.962688 z"
       id="path712"
       inkscape:connector-curvature="0" />
    <path
       style="fill:#fbfbfb;fill-opacity:1;fill-rule:evenodd;stroke:none;stroke-width:1.00000003pt;stroke-linecap:butt;stroke-linejoin:miter;stroke-opacity:1"
       d="m 20.542798,71.160743 1.316756,-1.024066 c 4.681643,8.192878 23.847077,9.070682 25.310091,8.778081 1.463013,-0.292598 -16.239499,5.266853 -26.626847,-7.754015 z"
       id="path740"
       inkscape:connector-curvature="0" />
    <path
       style="fill:none;fill-opacity:1;fill-rule:evenodd;stroke:#000000;stroke-width:0.81928766;stroke-linecap:round;stroke-linejoin:round;stroke-opacity:1"
       d="m 21.420605,48.630329 c 0,-1.46301 0,4.389135 0,4.389135"
       id="path741"
       inkscape:connector-curvature="0" />
    <path
       style="fill:none;fill-opacity:1;fill-rule:evenodd;stroke:#000000;stroke-width:0.81928766;stroke-linecap:round;stroke-linejoin:round;stroke-opacity:1"
       d="m 40.147193,55.213895 c 0,-1.46301 0,4.389136 0,4.389136"
       id="path742"
       inkscape:connector-curvature="0" />
  </g>
  <path
     style="fill:url(#linearGradient939);fill-opacity:1;fill-rule:evenodd;stroke:none;stroke-width:1.00000003pt;stroke-linecap:butt;stroke-linejoin:miter;stroke-opacity:1"
     d="m 122.20366,36.779966 c 0,0 12.14297,-16.5321 23.70073,-5.998398 4.68174,15.654193 21.79895,19.31178 21.79895,19.31178 l -3.36488,8.339218 c -12.72827,4.535395 -37.16055,-4.827986 -38.33096,-8.339218 -1.17041,-3.511238 -0.2926,1.90196 -3.80384,-13.313382 z"
     id="path903"
     inkscape:connector-curvature="0" />
  <g
     id="g970"
     transform="translate(-88.75951,12.936009)">
    <path
       inkscape:connector-curvature="0"
       id="path919"
       d="m 149.81686,36.758659 c -5.34474,0 -9.64755,4.494048 -9.64755,10.076336 v 20.152664 c 0,5.582284 4.30281,10.076332 9.64755,10.076332 h 19.2951 c 5.34475,0 9.64755,-4.494048 9.64755,-10.076332 V 46.834995 c 0,-5.582288 -4.3028,-10.076336 -9.64755,-10.076336 z"
       style="font-size:12px;fill:#000001;fill-rule:evenodd" />
    <path
       inkscape:connector-curvature="0"
       id="path921"
       d="m 142.97321,44.714046 -0.17343,24.056223 c 0,3.008888 4.70819,5.446103 9.22153,5.446103 h 16.30754 c 3.59817,3e-6 5.85633,-1.574072 6.64608,-3.723044 h 0.0615 l 0.30769,-19.445965 z"
       style="fill:#ff933d;fill-opacity:1;fill-rule:evenodd;stroke:none;stroke-width:1.00000003pt;stroke-linecap:butt;stroke-linejoin:miter;stroke-opacity:1" />
    <path
       inkscape:connector-curvature="0"
       id="path923"
       d="M 169.89807,45.262795 V 31.970611 c 0,-3.68193 -3.18727,-6.646088 -7.14634,-6.646088 l -4.8595,-0.285849 c -3.95907,0 -7.14634,2.964156 -7.14634,6.646089 v 13.292185"
       style="font-size:12px;fill:none;fill-rule:evenodd;stroke:#000001;stroke-width:12.30757427;stroke-linecap:round;stroke-opacity:1" />
    <path
       inkscape:connector-curvature="0"
       id="path925"
       d="m 151.17467,39.617188 c -4.51334,0 -8.14682,2.422342 -8.14682,5.431226 l 0.85756,3.43024 c 0,3.008888 3.63348,5.431217 8.14681,5.431217 h 16.29365 c 4.51334,0 7.28925,-0.993066 7.28925,-4.001954 v -4.859503 c 0,-3.008884 -3.63348,-5.431226 -8.14681,-5.431226 z"
       style="font-size:12px;fill:#ffd056;fill-opacity:1;fill-rule:evenodd" />
    <path
       inkscape:connector-curvature="0"
       id="path927"
       d="M 169.89807,45.262795 V 31.970611 c 0,-3.68193 -3.18727,-6.646088 -7.14634,-6.646088 l -4.8595,-0.285849 c -3.95907,0 -7.14634,2.964156 -7.14634,6.646089 v 13.292185"
       style="font-size:12px;fill:none;fill-rule:evenodd;stroke:#955801;stroke-width:6.39993811;stroke-linecap:round;stroke-opacity:1" />
    <path
       inkscape:connector-curvature="0"
       id="path929"
       d="M 169.04051,44.976948 V 31.684763 c 0,-3.681933 -3.18727,-6.646089 -7.14634,-6.646089 l -4.8595,-0.285852 c -3.95907,0 -7.14634,2.964158 -7.14634,6.646087 v 13.292182"
       style="font-size:12px;fill:none;fill-rule:evenodd;stroke:#e9a93d;stroke-width:1.84613597;stroke-linecap:round;stroke-opacity:1" />
    <path
       inkscape:connector-curvature="0"
       id="path931"
       d="m 160.32892,56.185773 c -2.49966,0 -4.52304,2.252583 -4.52303,5.01534 0,1.8104 0.91213,3.337186 2.21536,4.215342 -0.0287,0.156509 -0.12308,0.261156 -0.12308,0.430769 v 3.846116 c 0,1.068947 0.60162,1.938442 1.35384,1.938442 h 2.70766 c 0.75222,0 1.35384,-0.869495 1.35384,-1.938442 v -3.846116 c 0,-0.302407 -0.12885,-0.51494 -0.21539,-0.769225 1.04759,-0.91622 1.75383,-2.285723 1.75383,-3.876886 0,-2.762754 -2.02338,-5.01534 -4.52303,-5.01534 z"
       style="font-size:12px;fill:#000001;fill-opacity:1;fill-rule:evenodd" />
    <path
       inkscape:connector-curvature="0"
       id="path933"
       d="m 159.46739,56.585772 c -2.02605,0 -3.6615,2.150763 -3.6615,4.769184 0,1.720417 0.72358,3.169058 1.7846,3.999959 -0.0221,0.144828 -0.0923,0.243468 -0.0923,0.399996 v 3.63074 c 0,1.013109 0.49798,1.846135 1.10767,1.846135 h 2.1846 c 0.6097,-3e-6 1.10768,-0.833026 1.10768,-1.846135 v -3.63074 c 0,-0.301645 -0.1074,-0.518906 -0.18461,-0.769221 0.83556,-0.869007 1.41537,-2.136734 1.41537,-3.630734 0,-2.618421 -1.63547,-4.769184 -3.6615,-4.769184 z"
       style="font-size:12px;fill:#7e0000;fill-opacity:1;fill-rule:evenodd" />
  </g>
</svg>
