<?xml version="1.0" encoding="UTF-8" standalone="no"?>
<svg
   xmlns:dc="http://purl.org/dc/elements/1.1/"
   xmlns:cc="http://creativecommons.org/ns#"
   xmlns:rdf="http://www.w3.org/1999/02/22-rdf-syntax-ns#"
   xmlns:svg="http://www.w3.org/2000/svg"
   xmlns="http://www.w3.org/2000/svg"
   xmlns:xlink="http://www.w3.org/1999/xlink"
   id="svg704"
   height="90"
   width="90"
   y="0"
   x="0"
   version="1.0">
  <metadata
     id="metadata43">
    <rdf:RDF>
      <cc:Work
         rdf:about="">
        <dc:format>image/svg+xml</dc:format>
        <dc:type
           rdf:resource="http://purl.org/dc/dcmitype/StillImage" />
        <dc:title></dc:title>
      </cc:Work>
    </rdf:RDF>
  </metadata>
  <defs
     id="defs706">
    <linearGradient
       xlink:href="#linearGradient554"
       id="linearGradient557"
       x1="12.9236002"
       y1="79.9603500"
       x2="8.33575153"
       y2="72.2902298"
       gradientUnits="userSpaceOnUse"
       spreadMethod="pad"
       gradientTransform="scale(1.122498,0.89087)" />
    <linearGradient
       id="linearGradient554">
      <stop
         style="stop-color:#666565;stop-opacity:1;"
         offset="0.000000"
         id="stop555" />
      <stop
         style="stop-color:#ffffff;stop-opacity:1;"
         offset="1.000000"
         id="stop556" />
    </linearGradient>
    <linearGradient
       xlink:href="#linearGradient554"
       id="linearGradient559"
       x1="7.79836702"
       y1="68.6560287"
       x2="12.9945765"
       y2="78.4289169"
       gradientUnits="userSpaceOnUse"
       spreadMethod="pad"
       gradientTransform="scale(1.122498,0.89087)" />
  </defs>
  <path
     transform="matrix(1.7840923,0,0,1.7840923,-67.865434,-6.6576173)"
     d="M 87.346437 28.746929 A 24.103193 24.103193 0 1 1  39.140051,28.746929 A 24.103193 24.103193 0 1 1  87.346437 28.746929 z"
     id="path2193"
     style="fill:#000000;fill-opacity:1;stroke:none;stroke-width:0;stroke-linecap:round;stroke-linejoin:miter;stroke-miterlimit:4;stroke-dasharray:none;stroke-opacity:1" />
  <path
     transform="matrix(1.5473969,0,0,1.5473969,-53.350093,0.6007034)"
     d="M 84.86143,39.406101 A 24.103193,24.103193 0 0 1 42.298788,40.675621 L 63.243244,28.746929 z"
     id="path3185"
     style="fill:#ffc93f;fill-opacity:1;stroke:none;stroke-width:0;stroke-linecap:round;stroke-linejoin:miter;stroke-miterlimit:4;stroke-dasharray:none;stroke-opacity:1" />
  <path
     style="fill:#31baff;fill-opacity:1;stroke:none;stroke-width:0;stroke-linecap:round;stroke-linejoin:miter;stroke-miterlimit:4;stroke-dasharray:none;stroke-opacity:1"
     id="path2171"
     d="M 61.308634,4.7215008 A 24.103193,24.103193 0 0 1 84.791471,39.546829 L 63.243244,28.746929 z"
     transform="matrix(1.5473969,0,0,1.5473969,-53.350093,0.6007034)" />
  <path
     transform="matrix(1.5473969,0,0,1.5473969,-53.350093,0.6007034)"
     d="M 42.516503,41.050023 A 24.103193,24.103193 0 0 1 63.206998,4.6437631 L 63.243244,28.746929 z"
     id="path2173"
     style="fill:#ed0000;fill-opacity:1;stroke:none;stroke-width:0;stroke-linecap:round;stroke-linejoin:miter;stroke-miterlimit:4;stroke-dasharray:none;stroke-opacity:1" />
  <g
     id="g650"
     transform="matrix(0.9008302,-0.1959949,0.1959949,0.9008302,-10.183911,25.363517)">
    <defs
       id="defs550" />
    <path
       style="fill:#000000;fill-opacity:0.3;fill-rule:evenodd;stroke:none"
       d="M 55.2834,50.5792 11.8464,78.0058 C 3.99756,81.1118 -5.7526,71.3491 1.75504,62.3527 L 45.0457,33.9235 45.192,20.5864 69.47,8.84539 76.0513,19.8466 65.6673,28.3996 67.1299,31.4034 81.7552,25.268 87.6052,38.4206 68.7387,52.181 z"
       id="path570"
       transform="matrix(0.920161,0,0,0.966658,7.26221,-1.76816)" />
    <path
       style="fill:#000000;fill-opacity:1;fill-rule:evenodd;stroke:none"
       d="M 55.2834,50.5792 11.8464,78.0058 C 3.99756,81.1118 -5.7526,71.3491 1.75504,62.3527 L 45.0457,33.9235 45.192,20.5864 69.47,8.84539 76.0513,19.8466 65.6673,28.3996 67.1299,31.4034 81.7552,25.268 87.6052,38.4206 68.7387,52.181 z"
       id="path569"
       transform="matrix(0.920161,0,0,0.966658,3.752153,-4.985714)" />
    <path
       style="fill:#c9c9c9;fill-opacity:1;fill-rule:evenodd;stroke:none"
       d="m 54.9909,46.1242 -42.7057,28.958 c -5.9476,2.8276 -11.602688,-4.29 -7.31261,-9.9451 l 44.46071,-29.543 -0.1462,-13.894 18.8666,-9.6527 2.7788,5.8502 -9.5065,9.9451 4.3876,7.4588 14.3328,-5.9962 2.6325,7.1663 -14.9177,11.1152 z"
       id="path552"
       transform="matrix(0.920161,0,0,0.920161,3.752153,-2.945213)" />
    <path
       style="fill:#9d9d9d;fill-opacity:1;fill-rule:evenodd;stroke:none"
       d="m 54.6984,46.2705 c -0.1462,-0.4387 -3.3638,-1.9013 -2.1938,-3.9488 l -14.0402,9.3602 c 0.2925,1.4625 1.6088,3.9488 1.6088,4.095 0,0.1463 14.1865,-9.0676 14.6252,-9.5064 z"
       id="path566"
       transform="matrix(0.920161,0,0,0.920161,3.752153,-2.945213)" />
    <path
       style="fill:#ffc83d;fill-opacity:1;fill-rule:evenodd;stroke:none"
       d="m 43.5832,53.7293 -31.298,21.3529 c -5.9476,2.8276 -11.602688,-4.29 -7.31261,-9.9451 l 32.02921,-21.3529 c 5.2651,1.4138 6.2889,5.8988 6.5814,9.9451 z"
       id="path562"
       transform="matrix(0.920161,0,0,0.920161,3.752153,-2.945213)" />
    <path
       style="fill:#ffffff;fill-opacity:1;fill-rule:evenodd;stroke:none"
       d="m 38.6107,47.148 -30.12806,19.7441 c 0,0 -2.19378,-1.0238 -1.90128,-1.17 0.29251,-0.1463 30.12804,-20.4754 30.12804,-20.4754 z"
       id="path568"
       transform="matrix(0.920161,0,0,0.920161,3.752153,-2.945213)" />
    <path
       style="fill:#ff933d;fill-opacity:1;fill-rule:evenodd;stroke:none"
       d="m 43.5832,53.7293 -31.298,21.3529 c -4.19257,1.0726 1.8525,-0.9262 -4.68006,-5.1188 l 32.17546,-21.6454 c 1.6088,0.2438 3.5101,1.365 3.8026,5.4113 z"
       id="path567"
       transform="matrix(0.920161,0,0,0.920161,3.752153,-2.945213)" />
    <path
       transform="matrix(0.837932,-0.483709,0.480913,0.842803,-27.39991,8.07806)"
       style="font-size:12px;fill:url(#linearGradient557);fill-rule:evenodd;stroke-width:1pt"
       d="m 16.234,67.1846 c 0,2.0183 -2.0639,3.6563 -4.6069,3.6563 -2.54306,0 -4.60698,-1.638 -4.60698,-3.6563 0,-2.0183 2.06392,-3.6563 4.60698,-3.6563 2.543,0 4.6069,1.638 4.6069,3.6563 z"
       id="path561" />
    <path
       transform="matrix(0.625296,-0.360962,0.358875,0.628931,-16.72849,21.01979)"
       style="font-size:12px;fill:url(#linearGradient559);fill-rule:evenodd;stroke-width:1pt"
       d="m 16.234,67.1846 c 0,2.0183 -2.0639,3.6563 -4.6069,3.6563 -2.54306,0 -4.60698,-1.638 -4.60698,-3.6563 0,-2.0183 2.06392,-3.6563 4.60698,-3.6563 2.543,0 4.6069,1.638 4.6069,3.6563 z"
       id="path560" />
    <path
       style="fill:#969696;fill-opacity:1;fill-rule:evenodd;stroke:none"
       d="m 66.9836,14.9725 -14.7715,7.7514 0,10.9689 5.5576,9.0676 9.6527,1.1701 13.0165,-8.0439 -1.3163,-3.3638 -14.6253,6.5813 -6.2888,-10.9689 9.9452,-10.9689 z"
       id="path564"
       transform="matrix(0.920161,0,0,0.920161,3.752153,-2.945213)" />
    <path
       style="fill:#bbbbbb;fill-opacity:1;fill-rule:evenodd;stroke:none"
       d="m 67.5686,16.1425 -14.3327,8.3364 0.585,8.7751 4.8263,7.8976 8.7752,2.7789 13.0165,-8.0439 -1.0238,-2.34 -14.1865,6.5813 -6.7276,-11.8464 9.6527,-11.1152 z"
       id="path565"
       transform="matrix(0.920161,0,0,0.920161,3.752153,-2.945213)" />
  </g>
</svg>
