<?xml version="1.0" encoding="UTF-8" standalone="no"?>
<svg
   xmlns:dc="http://purl.org/dc/elements/1.1/"
   xmlns:cc="http://creativecommons.org/ns#"
   xmlns:rdf="http://www.w3.org/1999/02/22-rdf-syntax-ns#"
   xmlns:svg="http://www.w3.org/2000/svg"
   xmlns="http://www.w3.org/2000/svg"
   xmlns:xlink="http://www.w3.org/1999/xlink"
   version="1.1"
   height="90"
   width="90"
   id="svg704">
  <metadata
     id="metadata27">
    <rdf:RDF>
      <cc:Work
         rdf:about="">
        <dc:format>image/svg+xml</dc:format>
        <dc:type
           rdf:resource="http://purl.org/dc/dcmitype/StillImage" />
        <dc:title></dc:title>
      </cc:Work>
    </rdf:RDF>
  </metadata>
  <defs
     id="defs706">
    <linearGradient
       id="linearGradient734">
      <stop
         id="stop735"
         offset="0.000000"
         style="stop-color:#2a2535;stop-opacity:1;" />
      <stop
         id="stop736"
         offset="1.000000"
         style="stop-color:#e3e1cf;stop-opacity:1;" />
    </linearGradient>
    <linearGradient
       id="linearGradient724">
      <stop
         id="stop725"
         offset="0.000000"
         style="stop-color:#ffffff;stop-opacity:0.490196;" />
      <stop
         id="stop726"
         offset="1.000000"
         style="stop-color:#ffffff;stop-opacity:0.176471;" />
    </linearGradient>
    <linearGradient
       id="linearGradient718">
      <stop
         id="stop719"
         offset="0.000000"
         style="stop-color:#e3e1cf;stop-opacity:1;" />
      <stop
         id="stop720"
         offset="1.000000"
         style="stop-color:#ffffff;stop-opacity:1;" />
    </linearGradient>
    <linearGradient
       gradientTransform="scale(1.033999,0.967119)"
       spreadMethod="pad"
       gradientUnits="userSpaceOnUse"
       y2="27.204851"
       x2="24.03751"
       y1="41.926235"
       x1="45.433064"
       id="linearGradient721"
       xlink:href="#linearGradient718" />
    <linearGradient
       gradientTransform="scale(1.185464,0.843551)"
       spreadMethod="pad"
       gradientUnits="userSpaceOnUse"
       y2="68.666504"
       x2="37.319721"
       y1="39.844505"
       x1="40.260796"
       id="linearGradient723"
       xlink:href="#linearGradient724" />
    <linearGradient
       id="linearGradient732"
       xlink:href="#linearGradient734" />
    <radialGradient
       gradientTransform="scale(1.559286,0.641319)"
       spreadMethod="pad"
       gradientUnits="userSpaceOnUse"
       r="14.89454"
       fy="118.19096"
       fx="33.213421"
       cy="118.19096"
       cx="33.213421"
       id="radialGradient733"
       xlink:href="#linearGradient734" />
    <radialGradient
       id="radialGradient738"
       xlink:href="#linearGradient734" />
  </defs>
  <g
     transform="translate(-0.25123796,1.5555966)"
     id="g845">
    <path
       style="fill:#000000;fill-opacity:0.3;fill-rule:evenodd;stroke:none;stroke-width:1.00000003pt;stroke-linecap:butt;stroke-linejoin:miter;stroke-opacity:1"
       d="M 12.54589,66.08518 C 10.53906,63.2203 0.804919,39.68818 9.149907,5.573048 43.46938,-1.468831 73.21238,11.65689 88.65365,21.52739 91.80462,28.06533 86.42437,77.18133 74.9013,81.99402 67.17384,84.51389 26.73851,83.81925 12.54589,66.08518 Z"
       id="path743" />
    <path
       style="fill:#211301;fill-opacity:1;fill-rule:evenodd;stroke:none;stroke-width:1.00000003pt;stroke-linecap:butt;stroke-linejoin:miter;stroke-opacity:1"
       d="M 7.684535,66.32826 C 5.677707,63.46338 -4.056439,39.93127 4.288549,5.81613 38.60802,-1.225749 68.35102,11.89997 83.79229,21.77048 86.94326,28.30842 81.56302,77.42441 70.03994,82.2371 62.31248,84.75697 21.87715,84.06234 7.684535,66.32826 Z"
       id="path715" />
    <path
       style="fill:url(#linearGradient721);fill-opacity:1;fill-rule:evenodd;stroke:none;stroke-width:1.00000003pt;stroke-linecap:butt;stroke-linejoin:miter;stroke-opacity:1"
       d="M 12.30597,64.44791 C 10.67139,61.34246 1.518372,43.85351 7.729434,10.18333 42.87063,3.808869 66.24359,17.37499 80.79048,25.54737 82.42495,31.43159 77.03113,75.56235 68.20496,78.17751 60.68637,80.62928 23.09341,79.1582 12.30597,64.44791 Z"
       id="path713" />
    <path
       style="fill:#b5a794;fill-opacity:1;fill-rule:evenodd;stroke:none;stroke-width:1.00000003pt;stroke-linecap:butt;stroke-linejoin:miter;stroke-opacity:1"
       d="m 16.06521,20.80745 -2.61516,0.81718 c -0.32689,2.45177 -4.413035,22.39238 -0.49029,31.21855 4.57654,7.68199 6.7013,9.15307 6.21101,8.33578 C 13.61345,51.8625 11.81557,37.6425 16.06521,20.80745 Z"
       id="path717" />
    <path
       style="fill:#000000;fill-opacity:1;fill-rule:evenodd;stroke:none;stroke-width:1.00000003pt;stroke-linecap:butt;stroke-linejoin:miter;stroke-opacity:1"
       d="m 15.82546,20.41306 c 0,0 -6.609079,24.06411 1.86416,38.63797 C 24.12929,68.03272 44.9734,75.15024 62.0894,70.0663 65.30929,65.99914 72.59611,43.96872 65.81763,31.76726 63.2756,27.53058 32.60253,14.48184 15.82546,20.41306 Z"
       id="path711" />
    <path
       style="fill:url(#linearGradient723);fill-opacity:1;fill-rule:evenodd;stroke:none;stroke-width:1.00000003pt;stroke-linecap:butt;stroke-linejoin:miter;stroke-opacity:1"
       d="m 14.59424,44.6708 c 0,0 13.5661,-18.46963 26.47841,-6.70141 5.23043,17.48885 24.35375,21.57509 24.35375,21.57509 l -3.75924,9.31657 c -14.22,5.06693 -41.5157,-5.39382 -42.82328,-9.31657 -1.30758,-3.92274 -0.3269,2.12487 -4.24964,-14.87368 z"
       id="path722" />
    <path
       style="fill:#b5a794;fill-opacity:1;fill-rule:evenodd;stroke:none;stroke-width:1.00000003pt;stroke-linecap:butt;stroke-linejoin:miter;stroke-opacity:1"
       d="m 81.11737,25.87427 c 0,0 -5.39372,0.1635 -5.55711,0.1635 -0.16361,0 0.81718,13.893 0.16339,18.95993 -0.65379,5.06682 -2.28826,16.99855 -3.26895,20.104 -0.98069,3.10556 -6.70141,13.07581 -7.1917,13.7296 -0.49039,0.65379 1.30759,-0.1635 4.08614,-0.98068 7.51859,-8.66278 11.27794,-29.42047 11.76823,-51.97635 z"
       id="path716" />
    <path
       style="fill:#211301;fill-opacity:1;fill-rule:evenodd;stroke:none;stroke-width:1.00000003pt;stroke-linecap:butt;stroke-linejoin:miter;stroke-opacity:1"
       d="m 64.93611,78.50441 c 0,0 12.74891,-9.97026 9.47996,-51.81285 -2.77866,-2.77866 -7.0283,-5.88411 -7.0283,-5.88411 0,0 8.17238,3.92274 8.66278,5.23032 0.81718,1.79787 1.30747,45.11155 -11.11444,52.46664 z"
       id="path712" />
  </g>
</svg>
