<?xml version="1.0" encoding="UTF-8" standalone="no"?>
<!-- Created with Sodipodi ("http://www.sodipodi.com/") -->

<svg
   xmlns:dc="http://purl.org/dc/elements/1.1/"
   xmlns:cc="http://creativecommons.org/ns#"
   xmlns:rdf="http://www.w3.org/1999/02/22-rdf-syntax-ns#"
   xmlns:svg="http://www.w3.org/2000/svg"
   xmlns="http://www.w3.org/2000/svg"
   xmlns:xlink="http://www.w3.org/1999/xlink"
   xmlns:sodipodi="http://sodipodi.sourceforge.net/DTD/sodipodi-0.dtd"
   xmlns:inkscape="http://www.inkscape.org/namespaces/inkscape"
   id="svg569"
   sodipodi:version="0.32"
   width="90"
   height="90"
   sodipodi:docname="web-browser.svg"
   version="1.1"
   inkscape:version="0.92.3 (2405546, 2018-03-11)">
  <metadata
     id="metadata22">
    <rdf:RDF>
      <cc:Work
         rdf:about="">
        <dc:format>image/svg+xml</dc:format>
        <dc:type
           rdf:resource="http://purl.org/dc/dcmitype/StillImage" />
        <dc:title></dc:title>
      </cc:Work>
    </rdf:RDF>
  </metadata>
  <defs
     id="defs571">
    <linearGradient
       id="linearGradient584">
      <stop
         style="stop-color:#ffffff;stop-opacity:0;"
         offset="0.000000"
         id="stop585" />
      <stop
         style="stop-color:#ffffff;stop-opacity:0.80000001"
         offset="1.000000"
         id="stop586" />
    </linearGradient>
    <linearGradient
       xlink:href="#linearGradient584"
       id="linearGradient587"
       x1="28.252045"
       y1="32.868805"
       x2="68.360306"
       y2="21.479431"
       gradientUnits="userSpaceOnUse"
       spreadMethod="pad"
       gradientTransform="matrix(0.96795576,-0.68925454,0.88571192,0.99287546,-29.839657,31.88266)" />
  </defs>
  <sodipodi:namedview
     id="base"
     showgrid="false"
     inkscape:zoom="2.4583333"
     inkscape:cx="-48.813559"
     inkscape:cy="42.101693"
     inkscape:window-width="1366"
     inkscape:window-height="717"
     inkscape:window-x="0"
     inkscape:window-y="0"
     inkscape:window-maximized="1"
     inkscape:current-layer="svg569"
     units="px" />
  <g
     id="g844"
     transform="translate(-0.34300867,4.5820018)">
    <ellipse
       ry="38.112103"
       rx="38.112106"
       cy="42.132332"
       cx="46.763912"
       id="path589"
       style="font-size:12px;fill:none;fill-rule:evenodd;stroke:#000000;stroke-width:8.0068388;stroke-opacity:0.3" />
    <ellipse
       ry="34.235027"
       rx="34.235031"
       cy="38.145905"
       cx="42.949375"
       id="path573"
       style="font-size:12px;fill:#1166ff;fill-opacity:1;fill-rule:evenodd;stroke-width:0.84615505pt" />
    <path
       inkscape:connector-curvature="0"
       sodipodi:nodetypes="ccccccccc"
       id="path576"
       d="m 28.507,7.4277 5.0005,8.6389 -12.0802,14.964 c 0,0 5.8765,13.7192 10.1312,13.5473 -2.6408,0.5617 -2.6365,11.904 -1.3161,15.4251 4.135,-3.5715 -15.3747,-8.5174 -13.7148,-18.4766 1.6598,-9.9593 0.4862,-12.5098 -4.0785,-5.4553 -4.56468,7.0544 -5.39462,8.9218 -4.97965,5.602 C 7.88442,38.3534 6.46331,13.7781 28.507,7.4277 Z"
       style="font-size:12px;fill:#e48e6f;fill-rule:evenodd;stroke-width:1.00000003pt" />
    <path
       inkscape:connector-curvature="0"
       id="path574"
       d="m 30.7077,6.4007 7.0545,9.9593 -13.694,14.5239 c 0,0 9.5443,13.279 9.5443,13.694 0,0.415 -3.7347,10.7892 -3.7347,10.7892 0,0 -13.279,-7.0545 -11.6191,-17.0137 1.6598,-9.9593 0,-13.694 -4.5647,-6.6395 C 9.12933,38.7683 7.05448,44.9929 7.46945,41.6731 7.88442,38.3534 9.5443,10.5504 30.7077,6.4007 Z"
       style="font-size:12px;fill:#fffcac;fill-rule:evenodd;stroke-width:1.00000003pt" />
    <path
       inkscape:connector-curvature="0"
       sodipodi:nodetypes="ccccccccc"
       id="path575"
       d="m 28.507,7.4277 5.0005,8.6389 -12.0802,14.964 c 0,0 5.8765,13.7192 10.1312,13.5473 -2.6408,0.5617 -3.8814,6.0944 -2.561,9.6155 C 27.5304,49.792 16.5276,50.2407 18.1875,40.2815 19.8473,30.3222 18.2587,24.6594 13.694,31.7139 9.12933,38.7683 7.05448,44.9929 7.46945,41.6731 7.88442,38.3534 6.46331,13.7781 28.507,7.4277 Z"
       style="font-size:12px;fill:#ffd87c;fill-rule:evenodd;stroke-width:1.00000003pt" />
    <path
       inkscape:connector-curvature="0"
       id="path577"
       d="m 42.8405,12.697 c 0,0 5.2817,3.8146 -0.5869,9.3897 -5.8686,5.5752 -14.0845,7.6292 -7.0423,11.4437 7.0423,3.8146 16.7254,4.4014 15.8451,-2.3474 -0.8802,-6.7488 -2.0539,-21.1268 -8.2159,-18.486 z"
       style="font-size:12px;fill:#e48e6f;fill-rule:evenodd;stroke-width:1.00000003pt" />
    <path
       inkscape:connector-curvature="0"
       id="path578"
       d="m 43.688087,12.677406 c 0,0 5.11519,3.581104 -0.568397,8.814947 -5.683587,5.233936 -13.640472,7.162209 -6.820284,10.74322 6.820284,3.581104 16.198115,4.131986 15.345567,-2.203714 C 50.792522,23.69616 49.655824,10.198252 43.688087,12.677406 Z"
       style="font-size:12px;fill:#fffbaa;fill-rule:evenodd;stroke-width:0.95351601pt" />
    <path
       inkscape:connector-curvature="0"
       id="path579"
       d="m 42.220703,12.661748 c 0,0 4.365906,3.394311 -0.485138,8.355152 -4.851043,4.960931 -11.642388,6.788623 -5.821235,10.182845 5.821235,3.394311 13.825383,3.916458 13.097718,-2.088766 -0.727582,-6.005224 -1.697774,-18.79907 -6.791345,-16.449231 z"
       style="font-size:12px;fill:#ffd87c;fill-rule:evenodd;stroke-width:0.85763338pt" />
    <path
       inkscape:connector-curvature="0"
       id="path580"
       d="m 77.1715,41.1595 c 0,0 -14.0845,-2.054 -14.9648,-1.4671 -0.8803,0.5869 -13.2043,1.7606 -12.0305,8.216 1.1737,6.4554 5.2817,11.7371 0,15.5517 -5.2817,3.8145 -11.1503,6.7488 -5.8686,8.5094 5.2817,1.7605 12.6174,-0.2935 14.9648,-2.3475 2.3474,-2.054 -2.6408,-3.2277 -2.054,-9.0962 0.5869,-5.8686 -1.1737,-9.6831 4.9883,-7.6292 6.162,2.054 5.8686,4.4015 9.9765,0 4.108,-4.4014 7.6292,-5.5751 4.9883,-11.7371 z"
       style="font-size:12px;fill:#e48e6f;fill-rule:evenodd;stroke-width:1.00000003pt" />
    <path
       inkscape:connector-curvature="0"
       sodipodi:nodetypes="cccccccccc"
       id="path582"
       d="m 77.1715,41.075712 c 1.1737,-1.467146 -14.0845,-5.46575 -14.9648,-3.149483 -0.8803,-1.791779 -15.8452,0.786542 -14.6713,6.897962 1.1737,6.111609 6.1619,12.872485 0.8802,16.483877 -5.2817,3.611298 -9.3897,7.269554 -4.108,8.936365 5.2817,1.666716 12.6174,-0.277865 14.9648,-2.222447 2.3474,-1.944581 -3.8145,-3.055757 -3.2277,-8.611636 0.5869,-5.555974 0,-10.634417 6.162,-8.689931 6.162,1.944582 5.8686,4.167028 9.9765,0 4.108,-4.166933 7.6292,-3.810963 4.9883,-9.644707 z"
       style="font-size:12px;fill:#fffcac;fill-rule:evenodd;stroke-width:0.97300002pt" />
    <path
       inkscape:connector-curvature="0"
       sodipodi:nodetypes="cccccccccc"
       id="path581"
       d="m 77.1715,41.075712 c 0,0 -14.0845,-1.944581 -14.9648,-1.388946 -0.8803,0.555635 -13.2043,1.666811 -12.0305,7.778326 1.1737,6.111514 5.2817,11.111853 0,14.723245 -5.2817,3.611298 -11.1503,6.389285 -5.8686,8.056096 5.2817,1.666716 12.6174,-0.277865 14.9648,-2.222447 2.3474,-1.944581 -3.8145,-3.055757 -3.2277,-8.611636 0.5869,-5.555974 0,-10.634417 6.162,-8.689931 6.162,1.944582 5.8686,4.167028 9.9765,0 4.108,-4.166933 7.6292,-3.810963 4.9883,-9.644707 z"
       style="font-size:12px;fill:#ffd87c;fill-rule:evenodd;stroke-width:0.97300002pt" />
    <path
       inkscape:connector-curvature="0"
       id="path654"
       d="m 80.181147,37.730935 c 0,20.551914 -16.679797,37.231802 -37.231803,37.231802 -20.551915,0 -37.2318125,-16.679888 -37.2318125,-37.231802 0,-20.552007 16.6798975,-37.2318402 37.2318125,-37.2318402 20.552006,0 37.231803,16.6798332 37.231803,37.2318402 z"
       style="font-size:12px;fill:none;fill-rule:evenodd;stroke:#283d53;stroke-width:7.82190418" />
    <path
       inkscape:connector-curvature="0"
       id="path588"
       d="m 65.497733,15.227073 c 8.924548,10.004349 8.251989,23.760298 -1.501422,30.705402 -9.753318,6.945037 -24.91207,4.462077 -33.836618,-5.542272 -8.92464,-10.004451 -8.252082,-23.7604 1.501236,-30.705438 9.753412,-6.9451034 24.912164,-4.462143 33.836804,5.542308 z"
       style="font-size:12px;fill:url(#linearGradient587);fill-rule:evenodd;stroke-width:1.25361076pt" />
  </g>
</svg>
