<?xml version="1.0" encoding="UTF-8" standalone="no"?>
<svg
   xmlns:dc="http://purl.org/dc/elements/1.1/"
   xmlns:cc="http://creativecommons.org/ns#"
   xmlns:rdf="http://www.w3.org/1999/02/22-rdf-syntax-ns#"
   xmlns:svg="http://www.w3.org/2000/svg"
   xmlns="http://www.w3.org/2000/svg"
   xmlns:xlink="http://www.w3.org/1999/xlink"
   version="1.1"
   height="90"
   width="90"
   id="svg704">
  <metadata
     id="metadata38">
    <rdf:RDF>
      <cc:Work
         rdf:about="">
        <dc:format>image/svg+xml</dc:format>
        <dc:type
           rdf:resource="http://purl.org/dc/dcmitype/StillImage" />
        <dc:title></dc:title>
      </cc:Work>
    </rdf:RDF>
  </metadata>
  <defs
     id="defs706">
    <linearGradient
       id="linearGradient734">
      <stop
         id="stop735"
         offset="0.000000"
         style="stop-color:#2a2535;stop-opacity:1;" />
      <stop
         id="stop736"
         offset="1.000000"
         style="stop-color:#e3e1cf;stop-opacity:1;" />
    </linearGradient>
    <linearGradient
       id="linearGradient724">
      <stop
         id="stop725"
         offset="0.000000"
         style="stop-color:#ffffff;stop-opacity:0.490196;" />
      <stop
         id="stop726"
         offset="1.000000"
         style="stop-color:#ffffff;stop-opacity:0.176471;" />
    </linearGradient>
    <linearGradient
       id="linearGradient718">
      <stop
         id="stop719"
         offset="0.000000"
         style="stop-color:#e3e1cf;stop-opacity:1;" />
      <stop
         id="stop720"
         offset="1.000000"
         style="stop-color:#ffffff;stop-opacity:1;" />
    </linearGradient>
    <linearGradient
       gradientTransform="matrix(0.98329996,0,0,0.91969922,-2.23066,-7.187248)"
       spreadMethod="pad"
       gradientUnits="userSpaceOnUse"
       y2="27.204851"
       x2="24.03751"
       y1="41.926235"
       x1="45.433064"
       id="linearGradient721"
       xlink:href="#linearGradient718" />
    <linearGradient
       gradientTransform="matrix(1.1273383,0,0,0.80219001,-2.23066,-7.187248)"
       spreadMethod="pad"
       gradientUnits="userSpaceOnUse"
       y2="68.666504"
       x2="37.319721"
       y1="39.844505"
       x1="40.260796"
       id="linearGradient723"
       xlink:href="#linearGradient724" />
    <linearGradient
       id="linearGradient732"
       xlink:href="#linearGradient724" />
    <radialGradient
       gradientTransform="matrix(1.5567328,0,0,0.69628821,0.1728869,-23.350047)"
       spreadMethod="pad"
       gradientUnits="userSpaceOnUse"
       r="14.89454"
       fy="118.19096"
       fx="33.213421"
       cy="118.19096"
       cx="33.213421"
       id="radialGradient733"
       xlink:href="#linearGradient734" />
    <radialGradient
       id="radialGradient738"
       xlink:href="#linearGradient734" />
  </defs>
  <g
     transform="translate(2.5700831,5.4269299)"
     id="g864">
    <path
       style="font-size:12px;fill:#000000;fill-opacity:0.3;fill-rule:evenodd;stroke-width:1.41488072pt"
       d="m 68.567836,74.550445 c -0.634096,6.717817 -12.3874,10.694044 -26.235062,8.875584 -13.847661,-1.81846 -24.57172,-8.746391 -23.937624,-15.464208 0.634096,-6.717816 12.3874,-10.694043 26.235061,-8.875583 13.847662,1.81846 24.571721,8.746391 23.937625,15.464207 z"
       id="path744" />
    <path
       style="fill:#000000;fill-opacity:0.3;fill-rule:evenodd;stroke:none;stroke-width:0.97738606pt;stroke-linecap:butt;stroke-linejoin:miter;stroke-opacity:1"
       d="M 12.697788,52.102165 C 10.873399,49.497724 2.0241757,28.104895 9.6105285,-2.9088629 40.810048,-9.3105712 67.849139,2.6219005 81.88665,11.595086 84.751173,17.538668 79.86004,62.18957 69.384514,66.564741 62.359552,68.855538 25.600163,68.224049 12.697788,52.102165 Z"
       id="path743" />
    <path
       style="font-size:12px;fill:#211301;fill-rule:evenodd;stroke-width:1.28741312pt"
       d="M 64.813288,72.878297 C 64.226616,78.889825 53.352362,82.448003 40.540394,80.820726 27.728426,79.19345 17.806441,72.993896 18.393113,66.982369 c 0.586673,-6.011528 11.460926,-9.569705 24.272895,-7.942429 12.811968,1.627276 22.733953,7.82683 22.14728,13.838357 z"
       id="path739" />
    <ellipse
       style="fill:url(#radialGradient733);fill-opacity:1;fill-rule:evenodd;stroke:none;stroke-width:1.04112205pt;stroke-linecap:butt;stroke-linejoin:miter;stroke-opacity:1"
       id="path731"
       transform="matrix(0.99271949,0.12044922,-0.10163186,0.99482208,0,0)"
       cx="48.375092"
       cy="63.167686"
       rx="19.343279"
       ry="8.6517773" />
    <path
       style="font-size:12px;fill:#211301;fill-opacity:1;fill-rule:evenodd;stroke-width:0.99190798pt"
       d="m 56.686388,66.619668 c -0.427342,3.240845 -6.899101,5.32395 -14.44597,4.649781 C 34.693657,70.59529 28.915556,67.417894 29.342899,64.17705 29.770242,60.936206 36.242,58.853101 43.788761,59.52726 c 7.54687,0.674168 13.32497,3.851564 12.897627,7.092408 z"
       id="path730" />
    <path
       style="font-size:12px;fill:#bebdae;fill-opacity:1;fill-rule:evenodd;stroke-width:0.82567066pt"
       d="m 54.906216,65.628334 c -0.371702,2.581745 -6.000791,4.241201 -12.565004,3.704139 -6.564117,-0.537055 -11.589866,-3.068257 -11.218165,-5.650002 0.371701,-2.581745 6.000791,-4.241201 12.564909,-3.704146 6.564212,0.537062 11.589961,3.068264 11.21826,5.650009 z"
       id="path728" />
    <path
       style="fill:#211301;fill-opacity:1;fill-rule:evenodd;stroke:none;stroke-width:0.97738606pt;stroke-linecap:butt;stroke-linejoin:miter;stroke-opacity:1"
       d="M 8.2783709,52.323141 C 6.4539822,49.7187 -2.3952413,28.325871 5.1911115,-2.6878869 36.390631,-9.0895952 63.429722,2.8428765 77.467233,11.816062 80.331756,17.759644 75.440623,62.410546 64.965097,66.785717 57.940135,69.076514 21.180746,68.445025 8.2783709,52.323141 Z"
       id="path715" />
    <path
       style="fill:url(#linearGradient721);fill-opacity:1;fill-rule:evenodd;stroke:none;stroke-width:0.950968pt;stroke-linecap:butt;stroke-linejoin:miter;stroke-opacity:1"
       d="M 12.479674,50.613728 C 10.993691,47.790589 2.6727688,31.891546 8.3191888,1.2822917 40.265723,-4.5126695 61.513866,7.820168 74.738313,15.249606 76.2242,20.598896 71.320724,60.717763 63.296931,63.095183 56.461849,65.324062 22.286436,63.986716 12.479674,50.613728 Z"
       id="path713" />
    <path
       style="fill:#b5a794;fill-opacity:1;fill-rule:evenodd;stroke:none;stroke-width:0.950968pt;stroke-linecap:butt;stroke-linejoin:miter;stroke-opacity:1"
       d="m 15.897168,10.940579 -2.37742,0.742897 c -0.297178,2.228878 -4.0118492,20.356706 -0.445719,28.380498 4.160485,6.983624 6.092091,8.32097 5.646372,7.577979 -5.052112,-8.469511 -6.686541,-21.39678 -2.823233,-36.701374 z"
       id="path717" />
    <path
       style="fill:#000000;fill-opacity:1;fill-rule:evenodd;stroke:none;stroke-width:0.98597699pt;stroke-linecap:butt;stroke-linejoin:miter;stroke-opacity:1"
       d="m 15.679207,10.582048 c 0,0 -6.0082479,21.876463 1.694697,35.125431 5.854239,8.165171 24.803435,14.635645 40.363434,10.013878 2.927168,-3.697414 9.551553,-23.725072 3.389296,-34.817313 C 58.815701,17.052522 30.931088,5.190036 15.679207,10.582048 Z"
       id="path711" />
    <path
       style="fill:#437caf;fill-opacity:1;fill-rule:evenodd;stroke:none;stroke-width:0.950968pt;stroke-linecap:butt;stroke-linejoin:miter;stroke-opacity:1"
       d="m 16.491523,11.386298 c 0,0 -5.794914,21.099698 1.634523,33.878235 5.646373,7.875251 23.922742,14.115979 38.930253,9.658316 2.823234,-3.56613 9.212407,-22.882667 3.268952,-33.581057 C 58.096372,17.627026 31.201856,6.185739 16.491523,11.386298 Z"
       id="path710" />
    <path
       style="fill:url(#linearGradient723);fill-opacity:1;fill-rule:evenodd;stroke:none;stroke-width:0.950968pt;stroke-linecap:butt;stroke-linejoin:miter;stroke-opacity:1"
       d="m 14.559916,32.634537 c 0,0 12.332819,-16.790576 24.071283,-6.092186 4.754935,15.898948 22.139771,19.613715 22.139771,19.613715 l -3.417494,8.469606 c -12.927268,4.606299 -37.741542,-4.903476 -38.930252,-8.469606 -1.18871,-3.56613 -0.297178,1.931701 -3.863308,-13.521529 z"
       id="path722" />
    <path
       style="fill:#000000;fill-opacity:1;fill-rule:evenodd;stroke:none;stroke-width:1.01232103pt;stroke-linecap:butt;stroke-linejoin:miter;stroke-opacity:1"
       d="m 20.652053,40.193695 -0.138992,7.635533 c 5.881281,7.544423 23.932382,11.062644 29.410962,8.570309 -0.158125,-1.265502 -0.31635,-4.093421 -0.613568,-5.282088 C 45.447134,50.225898 27.415167,47.589611 20.652053,40.193695 Z"
       id="path709" />
    <path
       style="fill:#b5a794;fill-opacity:1;fill-rule:evenodd;stroke:none;stroke-width:0.950968pt;stroke-linecap:butt;stroke-linejoin:miter;stroke-opacity:1"
       d="m 75.03549,15.546783 c 0,0 -4.903381,0.148636 -5.051922,0.148636 -0.148732,0 0.742896,12.629997 0.148541,17.236295 -0.594355,4.606204 -2.080243,15.45323 -2.971775,18.276369 -0.891533,2.823234 -6.092186,11.8871 -6.537905,12.481455 -0.445814,0.594355 1.18871,-0.148636 3.714671,-0.891532 6.835083,-7.875252 10.252671,-26.74588 10.69839,-47.251223 z"
       id="path716" />
    <path
       style="fill:#c7bda8;fill-opacity:1;fill-rule:evenodd;stroke:none;stroke-width:0.950968pt;stroke-linecap:butt;stroke-linejoin:miter;stroke-opacity:1"
       d="m 21.246362,41.698453 0.148637,5.497737 c 5.94355,6.389268 23.179845,10.252576 27.488871,8.469606 -0.148541,-1.188805 -0.297177,-3.56613 -0.297177,-3.56613 0,0 -21.545417,-4.011944 -27.340331,-10.401213 z"
       id="path708" />
    <path
       style="fill:#211301;fill-opacity:1;fill-rule:evenodd;stroke:none;stroke-width:0.950968pt;stroke-linecap:butt;stroke-linejoin:miter;stroke-opacity:1"
       d="m 60.325251,63.392361 c 0,0 11.589923,-9.063867 8.618148,-47.102587 -2.526056,-2.526056 -6.389364,-5.349195 -6.389364,-5.349195 0,0 7.429438,3.56613 7.875251,4.75484 0.742897,1.634429 1.188615,41.010495 -10.104035,47.696942 z"
       id="path712" />
    <path
       style="fill:#fbfbfb;fill-opacity:1;fill-rule:evenodd;stroke:none;stroke-width:0.950968pt;stroke-linecap:butt;stroke-linejoin:miter;stroke-opacity:1"
       d="m 23.029427,67.552846 1.337347,-1.040074 c 4.75484,8.32097 24.219918,9.212502 25.705806,8.915325 1.485887,-0.297178 -16.493399,5.349195 -27.043153,-7.875251 z"
       id="path740" />
    <path
       style="fill:none;fill-opacity:1;fill-rule:evenodd;stroke:#000000;stroke-width:0.83209699;stroke-linecap:round;stroke-linejoin:round;stroke-dasharray:none;stroke-opacity:1"
       d="m 23.92096,44.670178 c 0,-1.485887 0,4.457758 0,4.457758"
       id="path741" />
    <path
       style="fill:none;fill-opacity:1;fill-rule:evenodd;stroke:#000000;stroke-width:0.83209699;stroke-linecap:round;stroke-linejoin:round;stroke-dasharray:none;stroke-opacity:1"
       d="m 42.94033,51.356675 c 0,-1.485887 0,4.457758 0,4.457758"
       id="path742" />
  </g>
</svg>
