<?xml version="1.0" encoding="UTF-8" standalone="no"?>
<!-- Created with Inkscape (http://www.inkscape.org/) -->

<svg
   xmlns:dc="http://purl.org/dc/elements/1.1/"
   xmlns:cc="http://creativecommons.org/ns#"
   xmlns:rdf="http://www.w3.org/1999/02/22-rdf-syntax-ns#"
   xmlns:svg="http://www.w3.org/2000/svg"
   xmlns="http://www.w3.org/2000/svg"
   xmlns:xlink="http://www.w3.org/1999/xlink"
   xmlns:sodipodi="http://sodipodi.sourceforge.net/DTD/sodipodi-0.dtd"
   xmlns:inkscape="http://www.inkscape.org/namespaces/inkscape"
   width="23.448032mm"
   height="21.301979mm"
   viewBox="0 0 23.448032 21.301979"
   version="1.1"
   id="svg8"
   sodipodi:docname="folder-download.svg"
   inkscape:version="0.92.3 (2405546, 2018-03-11)">
  <defs
     id="defs2">
    <linearGradient
       x1="0"
       y1="0"
       x2="1"
       y2="0"
       id="linearGradient3340"
       gradientUnits="objectBoundingBox"
       spreadMethod="pad">
      <stop
         style="stop-color:#ffb700;stop-opacity:1"
         offset="0.000000"
         id="stop3342" />
      <stop
         style="stop-color:#ffd58f;stop-opacity:0;"
         offset="1.000000"
         id="stop3344" />
    </linearGradient>
    <linearGradient
       spreadMethod="pad"
       gradientUnits="userSpaceOnUse"
       y2="69.142799"
       x2="35.370575"
       y1="19.295689"
       x1="60.644615"
       xlink:href="#linearGradient3340"
       id="folder_svg_Gradient559" />
    <linearGradient
       y2="54.628181"
       x2="73.916298"
       y1="17.443844"
       x1="85.637657"
       spreadMethod="pad"
       gradientTransform="matrix(1.0509199,-0.1486035,0.1724016,1.4993733,-28.78467,5.713269)"
       gradientUnits="userSpaceOnUse"
       id="linearGradient3387"
       xlink:href="#linearGradient3340"
       inkscape:collect="always" />
    <linearGradient
       id="linearGradient734">
      <stop
         id="stop735"
         offset="0.000000"
         style="stop-color:#7fa8e3;stop-opacity:0.741176;" />
      <stop
         id="stop736"
         offset="1.000000"
         style="stop-color:#ffffff;stop-opacity:0.290196;" />
    </linearGradient>
    <linearGradient
       spreadMethod="pad"
       gradientTransform="scale(1.615491,0.619007)"
       gradientUnits="userSpaceOnUse"
       y2="95.9015198"
       x2="27.7516518"
       y1="118.880966"
       x1="52.6992607"
       id="linearGradient717"
       xlink:href="#linearGradient734" />
    <linearGradient
       spreadMethod="pad"
       gradientTransform="matrix(1.615491,0.000000,0.000000,0.619007,7.394509e-8,-1.278808e-6)"
       gradientUnits="userSpaceOnUse"
       y2="87.7629700"
       x2="27.9378262"
       y1="64.3047867"
       x1="8.76167965"
       id="linearGradient719"
       xlink:href="#linearGradient734" />
    <linearGradient
       gradientTransform="matrix(1.066005,0.000000,0.000000,0.938082,7.394509e-8,-1.278808e-6)"
       spreadMethod="pad"
       gradientUnits="userSpaceOnUse"
       y2="57.5816307"
       x2="33.8251724"
       y1="86.0028992"
       x1="21.6558495"
       id="linearGradient721"
       xlink:href="#linearGradient734" />
    <linearGradient
       spreadMethod="pad"
       gradientTransform="scale(1.519424,0.658144)"
       gradientUnits="userSpaceOnUse"
       y2="116.731438"
       x2="42.5384789"
       y1="124.642860"
       x1="43.4018326"
       id="linearGradient723"
       xlink:href="#linearGradient734" />
    <linearGradient
       spreadMethod="pad"
       gradientTransform="matrix(1.519424,0.000000,0.000000,0.658144,7.394509e-8,-1.278808e-6)"
       gradientUnits="userSpaceOnUse"
       y2="115.265465"
       x2="46.2594757"
       y1="103.865761"
       x1="42.1643028"
       id="linearGradient725"
       xlink:href="#linearGradient734" />
    <linearGradient
       y2="87.7629700"
       x2="27.9378262"
       y1="64.3047867"
       x1="8.76167965"
       spreadMethod="pad"
       gradientTransform="matrix(1.615491,0,0,0.619007,7.3944777e-8,-1.2788081e-6)"
       gradientUnits="userSpaceOnUse"
       id="linearGradient2788"
       xlink:href="#linearGradient734"
       inkscape:collect="always" />
    <linearGradient
       y2="57.5816307"
       x2="33.8251724"
       y1="86.0028992"
       x1="21.6558495"
       spreadMethod="pad"
       gradientTransform="matrix(1.066005,0,0,0.938082,7.3944777e-8,-1.2788081e-6)"
       gradientUnits="userSpaceOnUse"
       id="linearGradient2790"
       xlink:href="#linearGradient734"
       inkscape:collect="always" />
    <linearGradient
       y2="115.265465"
       x2="46.2594757"
       y1="103.865761"
       x1="42.1643028"
       spreadMethod="pad"
       gradientTransform="matrix(1.519424,0,0,0.658144,7.3944777e-8,-1.2788081e-6)"
       gradientUnits="userSpaceOnUse"
       id="linearGradient2794"
       xlink:href="#linearGradient734"
       inkscape:collect="always" />
  </defs>
  <sodipodi:namedview
     id="base"
     pagecolor="#ffffff"
     bordercolor="#666666"
     borderopacity="1.0"
     inkscape:pageopacity="0.0"
     inkscape:pageshadow="2"
     inkscape:zoom="2.8"
     inkscape:cx="69.437823"
     inkscape:cy="7.7677283"
     inkscape:document-units="mm"
     inkscape:current-layer="layer1"
     showgrid="false"
     fit-margin-top="0"
     fit-margin-left="0"
     fit-margin-right="0"
     fit-margin-bottom="0"
     inkscape:window-width="1366"
     inkscape:window-height="717"
     inkscape:window-x="0"
     inkscape:window-y="0"
     inkscape:window-maximized="1" />
  <metadata
     id="metadata5">
    <rdf:RDF>
      <cc:Work
         rdf:about="">
        <dc:format>image/svg+xml</dc:format>
        <dc:type
           rdf:resource="http://purl.org/dc/dcmitype/StillImage" />
        <dc:title />
      </cc:Work>
    </rdf:RDF>
  </metadata>
  <g
     inkscape:label="Layer 1"
     inkscape:groupmode="layer"
     id="layer1"
     transform="translate(-86.549794,-110.21211)">
    <g
       id="g4562"
       transform="matrix(0.26458333,0,0,0.26458333,86.38428,107.87921)">
      <path
         sodipodi:nodetypes="cccccccccc"
         id="folder_svg_path783"
         style="font-size:12px;fill:#000009;fill-opacity:0.30147119;fill-rule:evenodd;stroke-width:1.00000003pt"
         transform="matrix(1.418885,-0.200635,0.127692,1.110535,-25.22021,4.335069)"
         d="m 32.5076,12.1608 c -0.4688,-0.1563 -7.1875,-4.21879 -7.5,0.7812 -0.3125,5 -1.2642,41.4814 1.2358,46.4815 1.0937,3.125 3.9062,7.8125 8.9062,11.0938 4.0625,2.6562 27.8258,17.5743 29.7008,17.7305 1.875,0.1563 5.7813,1.4063 6.5625,-3.9062 0.7813,-5.3126 3.5805,-19.5971 3.9406,-25.3384 -0.1562,-5.1562 2.0321,-8.5937 -2.5267,-13.2001 -3.125,-1.875 -34.5589,-26.393 -36.2777,-27.4867 -1.7187,-1.0938 -3.1517,-1.6302 -4.0415,-6.1556 z"
         inkscape:connector-curvature="0" />
      <path
         sodipodi:nodetypes="cccccccccc"
         id="folder_svg_path554"
         style="font-size:12px;fill:#593a28;fill-rule:evenodd;stroke-width:1.00000003pt"
         transform="matrix(1.418885,-0.200635,0.127692,1.110535,-28.78467,5.713269)"
         d="m 27.3438,9.06248 c -0.4688,-0.15625 -7.1875,-4.21875 -7.5,0.78125 -0.3125,4.99997 1.951,41.58627 4.451,46.58627 1.0937,3.125 3.9062,7.8125 8.9062,11.0938 4.0625,2.6562 30.549,16.6949 32.424,16.8512 1.875,0.1562 5.7813,1.4062 6.5625,-3.9063 0.7813,-5.3125 3.0363,-38.0588 2.88,-39.1525 C 74.9113,36.1599 71.1613,32.7225 69.4426,31.4724 66.3176,29.5974 36.7188,11.4062 35,10.3125 33.2813,9.21873 28.75,6.87498 27.3438,9.06248 Z"
         inkscape:connector-curvature="0" />
      <path
         id="folder_svg_path552"
         d="m 15.4375,11.75 c 0,0 -0.482126,0.759219 -0.9375,1.40625 9.960667,4.641572 12.206214,6.053969 15.09375,8.46875 2.837427,2.372877 1.755722,8.480742 3.84375,11.125 2.922433,3.700939 22.167726,8.737504 23.90625,9.40625 2.998344,1.153351 6.06397,4.083772 7.5625,7.21875 6.699762,14.016132 8.355132,23.709807 9.375,29.625 -6.962631,-11.166388 -7.098447,-29.620048 -21,-34.6875 C 46.109171,42.681463 33.827697,37.555273 32.0625,36.9375 25.890899,34.777601 31.05433,25.5056 22.3125,21.0625 18.92126,19.338878 13.112841,16.443136 8.9375,14.375 6.5587755,14.254418 4.6687876,15.227876 5.375,17.46875 c 0.6806711,3.959682 6.476329,42.40988 15.4375,47.84375 8.978821,7.54748 53.831563,16.948637 55,17.3125 1.168281,0.36377 3.597943,-0.147795 3.5625,-4.375 -0.03545,-4.227204 0.228258,-36.2165 -0.65625,-38.03125 -0.339321,-2.949785 -1.85506,-6.259991 -6.125,-8.125 C 68.323808,30.22874 16.767705,11.561905 15.4375,11.75 Z"
         style="font-size:12px;fill:#f1e36c;fill-opacity:1;fill-rule:evenodd;stroke-width:1.00000003pt"
         inkscape:connector-curvature="0" />
      <path
         id="folder_svg_path562"
         d="m 30.5625,22.8125 c 1.633307,2.815114 1.074076,7.656827 2.875,9.9375 2.922433,3.700939 22.167726,8.737504 23.90625,9.40625 2.998344,1.153351 6.06397,4.083772 7.5625,7.21875 3.813383,7.977729 5.954575,14.50389 7.3125,19.78125 2.019261,4.751579 3.441121,8.334517 3.40625,8.03125 C 75.525247,76.31995 75.362792,39.667871 73.25,36.96875 71.431182,34.64527 39.764118,25.45247 30.5625,22.8125 Z"
         style="font-size:12px;fill:url(#linearGradient3387);fill-opacity:1;fill-rule:evenodd;stroke-width:1.00000003pt"
         inkscape:connector-curvature="0" />
      <path
         sodipodi:nodetypes="ccccccc"
         transform="matrix(1.418885,-0.200635,0.127692,1.110535,-41.88497,7.389349)"
         id="folder_svg_path635"
         d="m 32.2401,16.3592 c 1.8064,0.6936 8.5103,6.1251 10.5583,9.5036 0.8838,3.5356 -0.3706,10.3244 4.0488,14.3019 4.4194,3.9774 15.2194,6.8852 16.7662,10.4207 1.5468,3.5356 7.53,24.1075 7.972,26.0962 C 72.0273,78.6704 38.4557,61.3834 37.3508,56.3011 35.6801,51.1165 33.3449,40.666 32.2401,16.3592 Z"
         style="font-size:12px;fill:url(#folder_svg_Gradient559);fill-opacity:1;fill-rule:evenodd;stroke-width:1.00000003pt"
         inkscape:connector-curvature="0" />
    </g>
    <g
       id="g4645"
       transform="matrix(0.1984375,0,0,0.1984375,84.812528,113.9254)">
      <g
         transform="matrix(0.79662747,0,0,0.79662747,8.5766897,16.507113)"
         id="g2767">
        <path
           style="font-size:12px;fill:#000000;fill-opacity:0.3;fill-rule:evenodd;stroke-width:1.00000003pt"
           d="M 5.08233,49.7833 C 3.68284,55.0129 4.49307,60.6846 5.52427,65.4723 15.3206,71.8067 29.5364,79.0251 42.8684,87.7903 58.5573,83.9601 75.358,81.2348 91.2679,78.9515 90.605,72.4697 90.384,66.4298 91.2679,60.169 87.9533,57.5173 49.4974,39.6186 46.4039,38.0719 26.7375,35.6412 5.3033,47.5736 5.08233,49.7833 Z"
           id="path780"
           sodipodi:nodetypes="ccccccc"
           transform="matrix(0.994837,0,0,1.423897,-4.089137,-34.46167)"
           inkscape:connector-curvature="0" />
        <path
           style="font-size:12px;fill:#3d4e67;fill-rule:evenodd;stroke-width:1.00000003pt"
           d="M 5.08233,49.7833 C 3.68284,55.0129 4.49307,60.6846 5.52427,65.4723 15.3206,71.8067 29.5364,79.0251 42.8684,87.7903 58.5573,83.9601 75.358,81.2348 91.2679,78.9515 90.605,72.4697 90.384,66.4298 91.2679,60.169 87.9533,57.5173 49.4974,39.6186 46.4039,38.0719 26.7375,35.6412 5.3033,47.5736 5.08233,49.7833 Z"
           id="path726"
           sodipodi:nodetypes="ccccccc"
           transform="matrix(0.994837,0,0,1.423897,-1.745386,-40.08667)"
           inkscape:connector-curvature="0" />
        <path
           style="font-size:12px;fill:#ffffff;fill-rule:evenodd;stroke-width:1.00000003pt"
           d="m 9.50172,52.4349 c 0.14732,3.1673 0.29465,6.3345 0.44197,9.5018 0,0 33.58761,20.3293 33.36661,20.3293 -0.221,0 42.2054,-8.1759 42.2054,-8.1759 0,-3.6829 0,-7.3657 0,-11.0486 C 72.2575,56.2651 58.9992,49.4886 45.741,42.7122 34.3242,41.0918 20.6976,44.3327 9.50172,52.4349 Z"
           id="path727"
           sodipodi:nodetypes="ccccccc"
           transform="matrix(0.994837,0,0,1.423897,-1.745386,-40.08667)"
           inkscape:connector-curvature="0" />
        <path
           style="font-size:12px;fill:url(#linearGradient717);fill-rule:evenodd;stroke-width:1.00000003pt"
           d="M 9.94369,51.772 C 22.9073,59.0641 31.2306,63.9254 44.1942,71.2174 57.5997,66.8717 71.0053,62.7469 85.7367,62.8205 70.2687,54.7183 61.2089,50.8145 45.7409,42.7122 33.2929,40.5762 20.8449,45.0692 9.94369,51.772 Z"
           id="path702"
           sodipodi:nodetypes="ccccc"
           transform="matrix(0.994837,0,0,1.423897,-1.745386,-40.08667)"
           inkscape:connector-curvature="0" />
        <path
           style="font-size:12px;fill:url(#linearGradient2788);fill-rule:evenodd;stroke-width:1.00000003pt"
           d="M 9.94369,51.772 C 22.9073,59.0641 31.2306,63.9254 44.1942,71.2174 57.5997,66.8717 71.0053,62.7469 85.7367,62.8205 70.2687,54.7183 61.2089,50.8145 45.7409,42.7122 33.2929,40.5762 20.8449,45.0692 9.94369,51.772 Z"
           id="path718"
           sodipodi:nodetypes="ccccc"
           transform="matrix(0.994837,0,0,1.423897,-1.745386,-40.08667)"
           inkscape:connector-curvature="0" />
        <path
           style="font-size:12px;fill:url(#linearGradient2790);fill-rule:evenodd;stroke-width:1.00000003pt"
           d="M 9.72272,52.8769 C 20.6976,59.2114 31.0096,65.104 42.6474,71.8804 c 0.0737,3.3882 0.1473,6.7764 0.221,10.1646 C 31.8198,75.4159 20.7713,68.7868 9.72272,62.1577 c -0.66291,-2.8726 -0.88388,-6.1872 0,-9.2808 z"
           id="path720"
           sodipodi:nodetypes="ccccc"
           transform="matrix(0.994837,0,0,1.423897,-1.745386,-40.08667)"
           inkscape:connector-curvature="0" />
        <path
           style="font-size:12px;fill:url(#linearGradient723);fill-rule:evenodd;stroke-width:1.00000003pt"
           d="m 43.9732,72.3223 0.221,9.0598 41.1006,-7.7339 -0.442,-10.1647 z"
           id="path722"
           transform="matrix(0.994837,0,0,1.423897,-1.745386,-40.08667)"
           inkscape:connector-curvature="0" />
        <path
           style="font-size:12px;fill:url(#linearGradient2794);fill-rule:evenodd;stroke-width:1.00000003pt"
           d="m 44.1942,73.2062 c 0,2.7253 0,5.4506 0,8.1759 13.7002,-2.578 27.4004,-5.1559 41.1006,-7.7339 -0.1473,-3.3882 0.3682,-6.9975 0.2209,-10.3857 -17.0884,1.4731 -32.409,5.377 -41.3215,9.9437 z"
           id="path724"
           sodipodi:nodetypes="ccccc"
           transform="matrix(0.994837,0,0,1.423897,-1.745386,-40.08667)"
           inkscape:connector-curvature="0" />
        <path
           style="font-size:12px;fill:none;stroke:#3d4e67;stroke-width:2"
           d="M 8.61787,51.772 43.3103,71.2175 43.0893,83.1499"
           id="path728"
           transform="matrix(0.994837,0,0,1.423897,-1.745386,-40.08667)"
           inkscape:connector-curvature="0" />
        <path
           style="font-size:12px;fill:none;stroke:#3d4e67;stroke-width:2"
           d="M 43.5313,71.6594 C 58.41,66.3561 70.4161,64.1464 86.1787,62.5996"
           id="path729"
           sodipodi:nodetypes="cc"
           transform="matrix(0.994837,0,0,1.423897,-1.745386,-40.08667)"
           inkscape:connector-curvature="0" />
        <path
           style="font-size:12px;fill:#810b0b;fill-opacity:1;fill-rule:evenodd;stroke-width:1.00000003pt"
           d="m 47.0668,64.1464 c -1.2242,0 -2.2097,0.9855 -2.2097,2.2097 l -0.2937,2.3585 c 0,1.2242 0.9855,2.2097 2.2097,2.2097 l 4.8982,-0.2122 c 1.1624,-0.1181 1.8298,-0.2456 2.0512,-1.9359 l 0.3662,-2.5887 c 0,-1.2242 -0.7287,-2.1463 -1.9528,-2.1463 z"
           id="path758"
           transform="matrix(0.859958,-0.246416,0.212199,0.998628,-8.377747,10.1903)"
           sodipodi:nodetypes="ccccccccc"
           inkscape:connector-curvature="0" />
        <path
           style="font-size:12px;fill:#d01111;fill-opacity:1;fill-rule:evenodd;stroke-width:1.00000003pt"
           d="m 47.0668,64.1464 c -1.2242,0 -2.2097,0.9855 -2.2097,2.2097 l -0.2937,2.3585 c 0,1.2242 0.9855,2.2097 2.2097,2.2097 l 4.8982,-0.2122 c 1.1624,-0.1181 1.8298,-0.2456 2.0512,-1.9359 l 0.3662,-2.5887 c 0,-1.2242 -0.7287,-2.1463 -1.9528,-2.1463 z"
           id="path759"
           transform="matrix(0.758064,-0.223914,0.203866,0.800327,-3.183137,22.06495)"
           sodipodi:nodetypes="ccccccccc"
           inkscape:connector-curvature="0" />
        <path
           transform="translate(1.987381,3.406944)"
           style="font-size:12px;fill:none;stroke:#3d4e67;stroke-width:2.875"
           d="m 61.6088,38.1861 c 0,6.5039 -8.0131,11.7824 -17.8864,11.7824 -9.8733,0 -17.8864,-5.2785 -17.8864,-11.7824 0,-6.5038 8.0131,-11.7823 17.8864,-11.7823 9.8733,0 17.8864,5.2785 17.8864,11.7823 z"
           id="path584"
           inkscape:connector-curvature="0" />
        <path
           style="fill:none;stroke:#3d4e67;stroke-width:1.25;stroke-linecap:butt;stroke-linejoin:miter;stroke-dasharray:none;stroke-opacity:1"
           d="M 62.7445,72.9653 C 62.4606,68.4227 62.1766,63.8801 61.8927,59.3375 68.9905,55.3628 76.3723,53.9432 84.0379,55.0789"
           id="path587"
           sodipodi:nodetypes="ccc"
           inkscape:connector-curvature="0" />
        <path
           style="fill:none;stroke:#3d4e67;stroke-width:1.25;stroke-linecap:butt;stroke-linejoin:miter;stroke-dasharray:none;stroke-opacity:1"
           d="m 67.0032,56.7823 1.1356,14.1956"
           id="path588"
           sodipodi:nodetypes="cc"
           inkscape:connector-curvature="0" />
        <path
           style="fill:none;stroke:#3d4e67;stroke-width:1.25;stroke-linecap:butt;stroke-linejoin:miter;stroke-dasharray:none;stroke-opacity:1"
           d="m 72.6814,55.0789 0.8518,14.1956"
           id="path589"
           sodipodi:nodetypes="cc"
           inkscape:connector-curvature="0" />
        <path
           style="fill:none;stroke:#3d4e67;stroke-width:1.25;stroke-linecap:butt;stroke-linejoin:miter;stroke-dasharray:none;stroke-opacity:1"
           d="m 78.6435,54.2271 0.2839,13.06"
           id="path590"
           sodipodi:nodetypes="cc"
           inkscape:connector-curvature="0" />
      </g>
      <g
         id="g572"
         transform="matrix(1.2631632,-0.919563,0.919563,1.2631632,3.5926038,8.8560634)">
        <g
           transform="matrix(1.008714,0,0,1.008714,-45.46822,-0.252175)"
           style="font-size:12px"
           id="g584">
          <path
             d="m 51.9665,36.0486 c 1.9937,0.9968 13.5059,-1.2773 13.7907,-3.4133 1.1166,-3.5514 -1.9125,-4.8576 -1.6932,-6.3995 0.4272,-1.4241 5.3257,-6.9264 4.7718,-8.6553 -1.5935,-3.1443 -5.8656,-7.0137 -8.8764,-5.1424 -2.5949,2.3432 -4.3287,8.277 -5.8952,7.7074 -1.5665,-0.5696 -2.9521,-0.0821 -3.3793,0.9147 -0.4272,0.9968 -0.9968,14.2763 1.2816,14.9884 z"
             transform="matrix(1.369638,0,0,1.207417,-21.85404,-4.997635)"
             style="fill:#0d3c07;fill-rule:evenodd;stroke-width:1.00000003pt"
             id="path582"
             inkscape:connector-curvature="0" />
          <path
             d="m 51.5506,35.4589 c 1.9937,0.9968 12.6741,-0.5697 12.9589,-2.7057 0.2848,-2.1361 -2.8481,-3.5602 -2.4209,-4.9842 0.4272,-1.4241 7.4051,-10.1108 6.1234,-11.25 -1.2816,-1.1393 -5.5538,-5.1266 -6.693,-3.845 -1.1393,1.2817 -6.4082,11.1076 -7.9747,10.538 -1.5665,-0.5696 -2.8481,-1.8512 -3.2753,-0.8544 -0.4272,0.9968 -0.9968,12.3892 1.2816,13.1013 z"
             style="fill:#2aaf18;fill-rule:evenodd;stroke-width:1.00000003pt"
             id="path581"
             inkscape:connector-curvature="0" />
          <path
             d="m 67.6424,15.9494 c 0,0 1.4241,0.8544 0.4272,2.5633 -0.9968,1.7088 -6.5506,9.2563 -6.1234,9.8259 1.5664,1.2816 3.4177,4.4145 2.4209,5.269 -1.7088,1.5664 -11.5348,2.7057 -12.6741,2.1361 -1.1392,-0.5697 8.4019,-2.2785 8.5443,-4.6994 0.1424,-2.4209 -2.4208,-3.4177 -1.5664,-4.8418 0.8544,-1.424 6.693,-11.25 7.5475,-10.9652 0.8544,0.2848 1.5664,1.2817 1.424,0.7121 z"
             style="fill:#208c11;fill-rule:evenodd;stroke-width:1.00000003pt"
             id="path583"
             inkscape:connector-curvature="0" />
        </g>
        <path
           d="m 16.9462,4.6519 c 0,0 -7.68987,9.5411 -7.40506,10.3956 0.28481,0.8544 7.83226,-6.55067 7.40506,-10.3956 z"
           transform="matrix(1.008714,0,0,1.008714,0.929487,8.797523)"
           style="font-size:12px;fill:#ffffff;fill-rule:evenodd;stroke-width:1.00000003pt"
           id="path588-8"
           inkscape:connector-curvature="0" />
        <path
           d="m 5.41139,24.019 c 0,0 -0.99683,-6.5506 -0.56962,-7.6899 0.42722,-1.1392 1.85127,0.712 1.85127,0.712 0,0 -1.70886,6.1235 -1.28165,6.9779 z"
           transform="matrix(1.008714,0,0,1.008714,0.929487,8.797523)"
           style="font-size:12px;fill:#ffffff;fill-rule:evenodd;stroke-width:1.00000003pt"
           id="path589-3"
           inkscape:connector-curvature="0" />
      </g>
    </g>
  </g>
</svg>
