<?xml version="1.0" encoding="UTF-8" standalone="no"?>
<svg
   xmlns:dc="http://purl.org/dc/elements/1.1/"
   xmlns:cc="http://creativecommons.org/ns#"
   xmlns:rdf="http://www.w3.org/1999/02/22-rdf-syntax-ns#"
   xmlns:svg="http://www.w3.org/2000/svg"
   xmlns="http://www.w3.org/2000/svg"
   xmlns:xlink="http://www.w3.org/1999/xlink"
   version="1.1"
   height="90"
   width="90"
   id="svg637">
  <metadata
     id="metadata39">
    <rdf:RDF>
      <cc:Work
         rdf:about="">
        <dc:format>image/svg+xml</dc:format>
        <dc:type
           rdf:resource="http://purl.org/dc/dcmitype/StillImage" />
        <dc:title></dc:title>
      </cc:Work>
    </rdf:RDF>
  </metadata>
  <defs
     id="defs639">
    <linearGradient
       id="linearGradient672">
      <stop
         id="stop673"
         offset="0.000000"
         style="stop-color:#ffffff;stop-opacity:0.992157;" />
      <stop
         id="stop674"
         offset="1.000000"
         style="stop-color:#3f0d00;stop-opacity:1;" />
    </linearGradient>
    <linearGradient
       id="linearGradient663">
      <stop
         id="stop664"
         offset="0.000000"
         style="stop-color:#ffb700;stop-opacity:1;" />
      <stop
         id="stop665"
         offset="1.000000"
         style="stop-color:#ffffff;stop-opacity:0;" />
    </linearGradient>
    <linearGradient
       id="linearGradient650">
      <stop
         id="stop651"
         offset="0.000000"
         style="stop-color:#820000;stop-opacity:0.992157;" />
      <stop
         id="stop652"
         offset="1.000000"
         style="stop-color:#eddd00;stop-opacity:0.521569;" />
    </linearGradient>
    <linearGradient
       gradientTransform="scale(1.382029,0.723574)"
       spreadMethod="pad"
       gradientUnits="userSpaceOnUse"
       y2="21.4785"
       x2="25.765659"
       y1="41.510738"
       x1="24.463873"
       id="linearGradient653"
       xlink:href="#linearGradient650" />
    <linearGradient
       gradientTransform="scale(0.896091,1.115958)"
       spreadMethod="pad"
       gradientUnits="userSpaceOnUse"
       y2="69.738998"
       x2="35.183212"
       y1="41.46595"
       x1="37.863033"
       id="linearGradient662"
       xlink:href="#linearGradient663" />
    <linearGradient
       gradientTransform="scale(0.802339,1.246356)"
       spreadMethod="pad"
       gradientUnits="userSpaceOnUse"
       y2="52.279938"
       x2="75.517197"
       y1="32.41782"
       x1="76.036346"
       id="linearGradient667"
       xlink:href="#linearGradient663" />
    <linearGradient
       spreadMethod="pad"
       gradientTransform="scale(1.027411,0.973321)"
       gradientUnits="userSpaceOnUse"
       y2="71.185539"
       x2="57.001396"
       y1="71.832603"
       x1="56.54763"
       id="linearGradient671"
       xlink:href="#linearGradient672" />
    <radialGradient
       spreadMethod="pad"
       gradientTransform="scale(1.027411,0.973321)"
       gradientUnits="userSpaceOnUse"
       r="1.2831527"
       fy="71.40123"
       fx="56.672806"
       cy="71.40123"
       cx="56.672806"
       id="radialGradient675"
       xlink:href="#linearGradient672" />
  </defs>
  <g
     transform="translate(-0.15537715,-2.3025915)"
     id="g866">
    <path
       style="fill:#000000;fill-opacity:0.382353;fill-rule:evenodd;stroke:none;stroke-width:1.00000003pt;stroke-linecap:butt;stroke-linejoin:miter;stroke-opacity:1"
       d="m 11.1855,47.024 c -0.2944,-0.8831 1.3595,13.7826 1.6538,23.9379 2.5021,1.9133 23.6177,14.4667 25.8253,14.761 2.2077,0.2944 4.1553,0.7359 4.4154,0.1472 2.3548,-0.5887 26.0157,-4.7356 27.3403,-6.6489 1.3246,-1.9133 3.61,-22.2559 6.4067,-26.6044 1.4718,2.502 9.7138,2.9435 8.242,-5.4457 0,-6.0343 -6.5196,-32.6303 -13.4369,-35.4266 C 70.7489,10.1255 28.6997,9.7879 27.0807,10.2295 11.7742,12.5843 4.85688,36.5743 4.85688,40.5481 c -0.58871,4.2683 0,8.8307 6.32862,6.4759 z"
       id="path766"
       transform="matrix(1.060862,0,0,1.060862,-0.623884,-2.29744)" />
    <path
       style="fill:#2e0000;fill-opacity:1;fill-rule:evenodd;stroke:none;stroke-width:1.00000003pt;stroke-linecap:butt;stroke-linejoin:miter;stroke-opacity:1"
       d="m 11.1855,47.024 c -0.2944,-0.8831 2.5021,12.0686 2.7964,22.2239 2.5021,1.9133 22.6655,14.2763 24.8731,14.5706 2.2077,0.2944 2.0605,0.7359 4.4154,0.1472 2.3548,-0.5887 24.8731,-3.9738 26.1977,-5.8871 1.3246,-1.9133 4.5622,-21.1133 7.3589,-25.4618 1.4718,2.502 9.7138,2.9435 8.242,-5.4457 0,-6.0343 -9.5666,-32.8207 -16.4839,-35.617 C 67.7019,9.93505 28.6997,9.7879 27.0807,10.2295 11.7742,12.5843 4.85688,36.5743 4.85688,40.5481 c -0.58871,4.2683 0,8.8307 6.32862,6.4759 z"
       id="path647"
       transform="matrix(1.060862,0,0,1.060862,-4.462461,-5.125866)" />
    <path
       style="fill:#f1e36c;fill-opacity:1;fill-rule:evenodd;stroke:none;stroke-width:1.00000003pt;stroke-linecap:butt;stroke-linejoin:miter;stroke-opacity:1"
       d="M 42.2001,47.5059 C 40.0905,57.2197 39.64,68.2176 39.1494,79.6975 31.9376,75.5275 24.8731,71.2103 17.5142,67.1874 17.0236,58.651 16.3858,51.948 14.7178,45.4721 c 7.3099,0.0491 18.2591,1.5432 27.4823,2.0338 z"
       id="path641"
       transform="matrix(1.060862,0,0,1.060862,-4.462461,-5.125866)" />
    <path
       style="fill:#f1e36c;fill-opacity:1;fill-rule:evenodd;stroke:none;stroke-width:1.00000003pt;stroke-linecap:butt;stroke-linejoin:miter;stroke-opacity:1"
       d="M 43.0429,47.3185 C 40.8352,57.4738 40.1796,79.8447 40.1796,79.8447 48.9612,78.1276 57.7429,76.4106 66.5245,74.6935 68.7678,64.1056 70.6363,55.0164 74.753,47.4259 72.1262,39.206 69.1247,32.8596 65.9358,26.1384 c -6.3823,6.8861 -9.0177,11.7115 -14.4633,18.9723 -4.1213,3.6086 -7.1185,3.2829 -8.4296,2.2078 z"
       id="path642"
       transform="matrix(1.060862,0,0,1.060862,-4.462461,-5.125866)" />
    <path
       style="fill:url(#linearGradient667);fill-opacity:1;fill-rule:evenodd;stroke:none;stroke-width:1.00000003pt;stroke-linecap:butt;stroke-linejoin:miter;stroke-opacity:1"
       d="M 43.0429,47.3185 C 40.8352,57.4738 40.1796,79.8447 40.1796,79.8447 48.9612,78.1276 57.7429,76.4106 66.5245,74.6935 68.7678,64.1056 70.6363,55.0164 74.753,47.4259 72.1262,39.206 69.1247,32.8596 65.9358,26.1384 c -6.3823,6.8861 -9.0177,11.7115 -14.4633,18.9723 -4.1213,3.6086 -7.1185,3.2829 -8.4296,2.2078 z"
       id="path666"
       transform="matrix(1.060862,0,0,1.060862,-4.462452,-5.402784)" />
    <path
       style="fill:#2e0000;fill-opacity:1;fill-rule:evenodd;stroke:none;stroke-width:1.00000003pt;stroke-linecap:butt;stroke-linejoin:miter;stroke-opacity:1"
       d="m 45.7724,78.9616 c 0.2944,-8.7326 1.619,-17.1707 3.9738,-26.1976 4.8078,-1.0303 8.5854,-1.1775 12.6573,-0.8831 -1.4718,7.6532 -3.2379,16.9255 -3.5323,24.4316 -4.5134,0.7849 -8.5853,1.5699 -13.0988,2.6491 z"
       id="path643"
       transform="matrix(1.060862,0,0,1.060862,-4.462461,-5.125866)" />
    <path
       style="fill:url(#linearGradient662);fill-opacity:1;fill-rule:evenodd;stroke:none;stroke-width:1.00000003pt;stroke-linecap:butt;stroke-linejoin:miter;stroke-opacity:1"
       d="M 42.2001,47.5059 C 40.0905,57.2197 39.64,68.2176 39.1494,79.6975 31.9376,75.5275 24.8731,71.2103 17.5142,67.1874 17.0236,58.651 16.3858,51.948 14.7178,45.4721 c 7.3099,0.0491 18.2591,1.5432 27.4823,2.0338 z"
       id="path661"
       transform="matrix(1.060862,0,0,1.060862,-4.462466,-5.679712)" />
    <path
       style="fill:#ffffff;fill-opacity:1;fill-rule:evenodd;stroke:none;stroke-width:1.00000003pt;stroke-linecap:butt;stroke-linejoin:miter;stroke-opacity:1"
       d="m 20.7521,48.7901 c 0.1472,5.1513 0,10.744 0.1472,16.6312 3.7775,1.3246 8.4382,2.502 12.2157,3.8266 0.9322,-3.0417 1.2756,-14.031 -0.2943,-20.6049 -3.9738,-0.785 -8.5363,-0.3925 -12.0686,0.1471 z"
       id="path644"
       transform="matrix(1.060862,0,0,1.060862,-4.462461,-5.125866)" />
    <path
       style="fill:#cc4c4c;fill-opacity:1;fill-rule:evenodd;stroke:none;stroke-width:1.00000003pt;stroke-linecap:butt;stroke-linejoin:miter;stroke-opacity:1"
       d="M 7.94762,42.0199 C 19.6238,40.6953 31.0055,41.8727 43.8591,43.6389 47.8329,31.5703 57.841,19.5017 64.1697,15.0863 51.3161,14.792 38.4626,14.4976 25.609,14.2033 13.9819,23.034 9.27222,33.6308 7.94762,42.0199 Z"
       id="path645"
       transform="matrix(1.060862,0,0,1.060862,-4.462461,-5.125866)" />
    <path
       style="fill:#daa244;fill-opacity:1;fill-rule:evenodd;stroke:none;stroke-width:1.00000003pt;stroke-linecap:butt;stroke-linejoin:miter;stroke-opacity:1"
       d="m 44.8894,42.7558 c -0.1472,1.4718 1.7661,3.3851 4.5625,0.8831 2.3548,-3.6795 15.6008,-22.5182 16.7782,-22.0767 1.1775,0.4415 10.4497,21.1937 12.9517,28.6997 1.9134,0.883 3.8267,-0.1471 3.6795,-3.6794 C 82.1254,43.0502 73.5891,16.9996 67.5548,14.2032 60.3431,18.7657 54.8975,23.1811 44.8894,42.7558 Z"
       id="path648"
       transform="matrix(1.060862,0,0,1.060862,-4.462461,-5.125866)" />
    <path
       style="fill:url(#linearGradient653);fill-opacity:1;fill-rule:evenodd;stroke:none;stroke-width:1.00000003pt;stroke-linecap:butt;stroke-linejoin:miter;stroke-opacity:1"
       d="M 7.94762,42.0199 C 19.6238,40.6953 31.0055,41.8727 43.8591,43.6389 47.8329,31.5703 57.841,19.5017 64.1697,15.0863 51.3161,14.792 38.4626,14.4976 25.609,14.2033 13.9819,23.034 9.27222,33.6308 7.94762,42.0199 Z"
       id="path649"
       transform="matrix(1.060862,0,0,1.060862,-4.462461,-5.125866)" />
    <path
       style="fill:none;fill-opacity:1;fill-rule:evenodd;stroke:#000000;stroke-width:1.75;stroke-linecap:butt;stroke-linejoin:round;stroke-dasharray:none;stroke-opacity:1"
       d="m 18.3164,49.8287 c 0.902,6.2442 0.7632,12.4885 0.2082,18.7327 4.5097,1.5264 9.0195,3.0527 13.5292,4.5791 0.6244,-7.2849 1.0407,-14.5699 -1e-4,-22.4792 -4.5791,-0.2776 -9.1582,-0.5551 -13.7373,-0.8326 z"
       id="path658"
       transform="matrix(0.954858,0,0,0.954858,0.02267048,-1.253567)" />
    <path
       style="fill:none;fill-opacity:1;fill-rule:evenodd;stroke:#000000;stroke-width:1.75;stroke-linecap:butt;stroke-linejoin:round;stroke-dasharray:none;stroke-opacity:1"
       d="m 24.977,50.6613 c 0,0.4163 1.457,15.4024 -0.6245,19.149"
       id="path659"
       transform="matrix(0.954858,0,0,0.954858,0.02267048,-1.253567)" />
    <path
       style="fill:none;fill-opacity:1;fill-rule:evenodd;stroke:#000000;stroke-width:1.875;stroke-linecap:butt;stroke-linejoin:miter;stroke-dasharray:none;stroke-opacity:1"
       d="m 19.5653,58.3625 12.4885,2.7059"
       id="path660"
       transform="matrix(0.954858,0,0,0.954858,0.02267048,-1.253567)" />
    <path
       style="fill:#b62020;fill-opacity:1;fill-rule:evenodd;stroke:none;stroke-width:1.00000003pt;stroke-linecap:butt;stroke-linejoin:miter;stroke-opacity:1"
       d="m 47.0078,79.5793 c 0.2944,-8.7326 1.619,-17.7884 3.9738,-26.8153 4.8078,-1.0303 6.7323,-1.1775 10.8042,-0.8831 -1.4718,7.6532 -3.2379,17.7491 -3.5323,25.2552 -4.5134,0.7849 -6.7322,1.364 -11.2457,2.4432 z"
       id="path668"
       transform="matrix(0.965261,0,0,0.965261,0.708429,1.122103)" />
    <path
       style="font-size:12px;fill:url(#radialGradient675);fill-rule:evenodd;stroke-width:1.00000003pt"
       d="m 59.5284,70.6429 c 0,1.034 -0.8858,1.8732 -1.9773,1.8732 -1.0915,0 -1.9774,-0.8392 -1.9774,-1.8732 0,-1.0341 0.8859,-1.8733 1.9774,-1.8733 1.0915,0 1.9773,0.8392 1.9773,1.8733 z"
       id="path670"
       transform="matrix(0.954858,0,0,0.954858,0.02267048,-1.253567)" />
    <path
       style="fill:none;fill-opacity:1;fill-rule:evenodd;stroke:#2e0000;stroke-width:2.5;stroke-linecap:butt;stroke-linejoin:miter;stroke-dasharray:none;stroke-opacity:1"
       d="m 15.7584,18.0771 c 0,0 24.0417,-2.2223 42.6284,2.8285"
       id="path703"
       transform="matrix(0.954858,0,0,0.954858,0.02267048,-1.253567)" />
    <path
       style="fill:none;fill-opacity:1;fill-rule:evenodd;stroke:#2e0000;stroke-width:2.5;stroke-linecap:butt;stroke-linejoin:miter;stroke-dasharray:none;stroke-opacity:1"
       d="m 6.46498,32.6233 c 0,0 11.31372,-5.2527 42.83042,1.8183"
       id="path704"
       transform="matrix(0.954858,0,0,0.954858,0.02267048,-1.253567)" />
    <path
       style="fill:none;fill-opacity:1;fill-rule:evenodd;stroke:#2e0000;stroke-width:2.5;stroke-linecap:butt;stroke-linejoin:miter;stroke-dasharray:none;stroke-opacity:1"
       d="m 30.5066,43.533 c 0.8081,0 3.8385,-16.9706 24.2438,-32.1228"
       id="path705"
       transform="matrix(0.954858,0,0,0.954858,0.02267048,-1.253567)" />
    <path
       style="fill:none;fill-opacity:1;fill-rule:evenodd;stroke:#2e0000;stroke-width:2.5;stroke-linecap:butt;stroke-linejoin:miter;stroke-dasharray:none;stroke-opacity:0.999764"
       d="M 14.9502,43.129 C 18.1827,28.9868 32.3249,11.0061 39.396,10.804"
       id="path706"
       transform="matrix(0.954858,0,0,0.954858,0.02267048,-1.253567)" />
  </g>
</svg>
